<?xml version="1.0" encoding="utf-8"?>
<!-- Generator: Adobe Illustrator 24.2.1, SVG Export Plug-In . SVG Version: 6.00 Build 0)  -->
<svg version="1.1" id="Capa_1" xmlns="http://www.w3.org/2000/svg" xmlns:xlink="http://www.w3.org/1999/xlink" x="0px" y="0px"
	 viewBox="0 0 512 512" style="enable-background:new 0 0 512 512;" xml:space="preserve">
<style type="text/css">
	.st0{fill:#FFFFFF;}
</style>
<g>
	<path class="st0" d="M458.1,169.4c-1.9-2.2-4.7-3.5-7.6-3.5h-3.2V16.6c0-9.1-7.4-16.6-16.6-16.6h-38.6c-9.1,0-16.6,7.4-16.6,16.6
		V43h-31.8l0-26.5c0-9.1-7.4-16.6-16.6-16.6h-38.6c-9.1,0-16.6,7.4-16.6,16.6V70h-31.8V16.6c0-9.1-7.5-16.6-16.6-16.6h-38.6
		c-9.2,0-16.6,7.4-16.6,16.6V43h-31.8V16.6c0-9.1-7.4-16.6-16.6-16.6H81.3c-9.1,0-16.6,7.4-16.6,16.6v149.3h-3.2
		c-2.9,0-5.7,1.3-7.6,3.5c-1.9,2.2-2.7,5.1-2.3,8l48.9,326.1c0.7,4.9,4.9,8.5,9.9,8.5h291.1c4.9,0,9.2-3.6,9.9-8.5l22.4-149.3
		c0.8-5.5-2.9-10.6-8.4-11.4c-5.5-0.8-10.6,2.9-11.4,8.4l-8.2,54.8c-99.5-32.1-200.2-32.1-299.7,0l-33-220.1h95.8
		c5,43.6,42.1,77.6,87.1,77.6c45,0,82.2-34,87.1-77.6h95.7l-12.4,80.7c-0.8,5.5,2.9,10.6,8.4,11.4c0.5,0.1,1,0.1,1.5,0.1
		c4.9,0,9.1-3.5,9.9-8.5l14.2-92.2C460.8,174.5,460,171.6,458.1,169.4L458.1,169.4z M402.8,426l-9.9,66H119.1l-9.9-66
		C206.6,393.9,305.4,393.9,402.8,426z M116.5,165.9H84.7V20h31.8V165.9z M168.3,165.9h-31.8V63h31.8V165.9z M220.1,233.2
		c-19.1-12-31.8-33.2-31.8-57.3V20h31.8V233.2z M271.9,241.6c-5.1,1.2-10.4,1.9-15.9,1.9c-5.5,0-10.8-0.7-15.9-1.9V90h31.8V241.6z
		 M291.9,233.2V20h31.8l0,155.9C323.7,200,311,221.2,291.9,233.2L291.9,233.2z M375.5,165.9h-31.8l0-102.9h31.8V165.9z M427.3,165.9
		h-31.8V20h31.8V165.9z"/>
	<path class="st0" d="M430,302.6c-5.5,0-10,4.5-10,10v0.1c0,5.5,4.5,10,10,10s10-4.5,10-10S435.5,302.6,430,302.6z"/>
</g>
</svg>
