<?xml version="1.0" encoding="utf-8"?>
<!-- Generator: Adobe Illustrator 24.2.1, SVG Export Plug-In . SVG Version: 6.00 Build 0)  -->
<svg version="1.1" id="Capa_1" xmlns="http://www.w3.org/2000/svg" xmlns:xlink="http://www.w3.org/1999/xlink" x="0px" y="0px"
	 viewBox="0 0 512 512" style="enable-background:new 0 0 512 512;" xml:space="preserve">
<style type="text/css">
	.st0{fill:#FFFFFF;}
</style>
<g>
	<path class="st0" d="M234.6,223.1c6-4.9,14.4-5.3,20.8-1l2.2,1.5c1.3,0.9,2.7,1.3,4.2,1.3c2.4,0,4.8-1.2,6.3-3.4
		c2.3-3.5,1.4-8.1-2.1-10.4l-2.2-1.5c-12-8-27.5-7.2-38.6,1.9c-3.2,2.6-3.7,7.4-1.1,10.6C226.6,225.3,231.4,225.8,234.6,223.1
		L234.6,223.1z"/>
	<path class="st0" d="M282.3,185.1c2.9-2.4,7-2.6,10.1-0.5l1.4,0.9c1.3,0.9,2.7,1.3,4.2,1.3c2.4,0,4.8-1.2,6.3-3.4
		c2.3-3.5,1.4-8.1-2.1-10.4l-1.4-0.9c-8.7-5.8-19.9-5.2-28,1.4c-3.2,2.6-3.7,7.4-1.1,10.6C274.3,187.2,279.1,187.7,282.3,185.1
		L282.3,185.1z"/>
	<path class="st0" d="M333,221.3c2.9-2.4,7-2.6,10.1-0.5l1.4,0.9c1.3,0.9,2.7,1.3,4.2,1.3c2.4,0,4.8-1.2,6.3-3.4
		c2.3-3.5,1.4-8.1-2.1-10.4l-1.4-0.9c-8.7-5.8-19.9-5.2-28,1.4c-3.2,2.6-3.7,7.4-1.1,10.6S329.8,223.9,333,221.3z"/>
	<path class="st0" d="M191.3,186.8c1.4,0,2.9-0.4,4.2-1.3l1.4-0.9c3.1-2.1,7.2-1.9,10.1,0.5c3.2,2.6,7.9,2.2,10.6-1.1
		c2.6-3.2,2.2-7.9-1.1-10.6c-8.1-6.6-19.3-7.1-28-1.4l-1.4,0.9c-3.5,2.3-4.4,7-2.1,10.4C186.5,185.6,188.9,186.8,191.3,186.8z"/>
	<path class="st0" d="M140.6,223c1.4,0,2.9-0.4,4.2-1.3l1.4-0.9c3.1-2.1,7.2-1.9,10.1,0.5c3.2,2.6,7.9,2.2,10.6-1.1
		c2.6-3.2,2.2-7.9-1.1-10.6c-8.1-6.6-19.3-7.1-28-1.4l-1.4,0.9c-3.5,2.3-4.4,7-2.1,10.4C135.7,221.8,138.1,223,140.6,223L140.6,223z
		"/>
	<path class="st0" d="M475.8,23.9c-0.9-4.5-3.4-8.3-7.2-10.8l-15-9.9c-3.8-2.5-8.4-3.4-12.8-2.4c-4.5,1-8.2,3.7-10.6,7.5l-25.1,40.5
		l6.5-23c1.3-4.4,0.7-9-1.6-12.9s-6-6.8-10.4-7.9l-17.4-4.4c-4.4-1.1-9-0.4-12.9,1.9c-3.9,2.4-6.6,6.2-7.6,10.6l-5.5,24.2
		c-0.9,4,1.6,8.1,5.7,9c4,0.9,8.1-1.6,9-5.7l5.5-24.2c0.1-0.6,0.5-0.9,0.8-1.1c0.3-0.2,0.8-0.4,1.3-0.2l17.4,4.4
		c0.6,0.2,0.9,0.5,1.1,0.8c0.2,0.3,0.3,0.8,0.2,1.3l-21,73.8l-27.7,44.8l15.5-68.4c0.9-4-1.6-8.1-5.7-9c-4.1-0.9-8.1,1.6-9,5.7
		l-18.4,81.3h-0.5c-2.7,0-5.2-1.7-6.1-4.3c-6-16.3-21.7-27-39-26.7c-1.5,0-2.9-0.5-4-1.6l-8.8-8.4c-15.8-15.1-40.6-15.1-56.4,0
		l-8.8,8.4c-1.1,1-2.6,1.6-4,1.6c-17.3-0.3-33,10.4-39,26.7c-0.9,2.6-3.4,4.3-6.1,4.3h-0.8c-16.3,0-31,9.7-37.5,24.7l-2.3,5.3
		c-14.9,1.9-27.9,12-33.2,26.4c-0.3,0.8-1,1.5-1.9,1.7l-0.4,0.1c-14.7,4.1-25.9,16-29,31l-0.6,3c-9.1,0.6-16.4,8.2-16.4,17.4V303
		c0,68.9,41,128.3,99.9,155.3v28.5c0,13.9,11.3,25.2,25.2,25.2h166.3c13.9,0,25.2-11.3,25.2-25.2v-28.5
		c13.9-6.3,26.9-14.5,38.7-24.4c3.2-2.7,3.6-7.4,0.9-10.6c-2.7-3.2-7.4-3.6-10.6-0.9c-27.9,23.4-63.3,36.2-99.8,36.2h-75.4
		c-85.8,0-155.6-69.8-155.6-155.6v-3.9H320c4.1,0,7.5-3.4,7.5-7.5c0-4.1-3.4-7.5-7.5-7.5H50.9v-24.7c0-1.3,1.1-2.4,2.4-2.4h36.6
		c4.1,0,7.5-3.4,7.5-7.5c0-4.1-3.4-7.5-7.5-7.5H67.6c2-9.4,9-16.8,18.3-19.4l0.4-0.1c5.5-1.5,9.9-5.6,11.9-11
		c3.7-10.1,13.5-16.9,24.2-16.9c3,0,5.7-1.8,6.9-4.5l4.1-9.5c4.1-9.5,13.4-15.6,23.7-15.6h0.8c9,0,17.1-5.7,20.2-14.1
		c3.8-10.3,13.7-17.1,24.7-16.8c5.5,0.1,10.7-1.9,14.7-5.7l8.8-8.4c10-9.6,25.7-9.6,35.7,0l8.8,8.4c4,3.8,9.2,5.8,14.7,5.7
		c11-0.2,20.9,6.6,24.7,16.8c3.1,8.4,11.2,14.1,20.2,14.1h0.8c10.3,0,19.6,6.1,23.7,15.6l4.1,9.5c1.2,2.8,3.9,4.5,6.9,4.5
		c10.8,0,20.5,6.8,24.2,16.9c2,5.3,6.4,9.4,11.9,11l0.4,0.1c9.3,2.6,16.3,10,18.3,19.4H121.9c-4.1,0-7.5,3.4-7.5,7.5
		s3.4,7.5,7.5,7.5H435c1.3,0,2.4,1.1,2.4,2.4V284h-84.6c-4.1,0-7.5,3.4-7.5,7.5c0,4.1,3.4,7.5,7.5,7.5h84.6v3.9
		c0,35.9-11.9,69.6-34.4,97.5c-2.6,3.2-2.1,8,1.1,10.6c1.4,1.1,3.1,1.7,4.7,1.7c2.2,0,4.4-1,5.9-2.8c24.3-30.2,37.7-68.2,37.7-107
		v-43.7c0-9.3-7.2-16.8-16.4-17.4l-0.6-3c-3.1-15-14.3-26.9-29-31l-0.4-0.1c-0.9-0.2-1.5-0.9-1.8-1.7c-5.1-13.7-17.2-23.6-31.3-26.1
		L473.1,36.6C475.7,32.9,476.7,28.4,475.8,23.9L475.8,23.9z M281.8,473.6c19.1,0,37.9-3.2,55.7-9.4v22.5c0,5.6-4.6,10.2-10.2,10.2
		H161c-5.6,0-10.2-4.6-10.2-10.2v-22.5c17.5,6,36.2,9.3,55.7,9.3L281.8,473.6L281.8,473.6z M460.8,28l-96.7,138.5
		c-2.5-3.4-5.5-6.3-8.8-8.8l87.7-141.5c0.3-0.5,0.8-0.7,1.1-0.8c0.3-0.1,0.8-0.1,1.3,0.2l15,9.9c0.5,0.3,0.7,0.8,0.8,1.1
		S461.2,27.5,460.8,28z"/>
</g>
</svg>
