<?xml version="1.0" encoding="utf-8"?>
<!-- Generator: Adobe Illustrator 24.2.1, SVG Export Plug-In . SVG Version: 6.00 Build 0)  -->
<svg version="1.1" id="Capa_1" xmlns="http://www.w3.org/2000/svg" xmlns:xlink="http://www.w3.org/1999/xlink" x="0px" y="0px"
	 viewBox="0 0 512 512" style="enable-background:new 0 0 512 512;" xml:space="preserve">
<style type="text/css">
	.st0{fill:#FFFFFF;}
</style>
<g>
	<g>
		<path class="st0" d="M481.3,76.2h-55l63.4-17c7.7-2.1,14.2-7,18.2-14c4-6.9,5.1-15,3-22.7s-7-14.2-14-18.2c-6.9-4-15-5.1-22.7-3
			L194.9,76.2h-42.6c-16.5,0-30,13.4-30,30s13.4,30,30,30h7.5v78.7c-3.5,2.3-6.8,4.9-10,7.8c-15.9-14.2-36.9-22.9-59.9-22.9
			C40.3,199.7,0,240,0,289.6c0,42.3,12.8,82.8,37.2,117.2c22.4,31.7,52.9,56.1,88.6,70.8v24c0,5.5,4.5,10,10,10h135.4
			c5.5,0,10-4.5,10-10v-24c20.5-8.5,39.4-20.2,56.2-34.9c4.2-3.6,4.6-9.9,0.9-14.1c-3.6-4.2-9.9-4.6-14.1-0.9
			c-16.8,14.7-35.8,26-56.5,33.8c-3.9,1.5-6.5,5.2-6.5,9.4v20.8H145.7v-20.8c0-4.2-2.6-7.9-6.5-9.4c-34.7-13-64.3-35.8-85.7-66.2
			c-20-28.3-31.4-61.2-33.2-95.7h366.4c-1.1,20.4-5.5,40.3-13.2,59.2c-2.1,5.1,0.4,10.9,5.5,13c5.1,2.1,10.9-0.4,13-5.5
			c9.9-24.4,15-50.2,15-76.7c0-49.6-40.3-89.9-89.9-89.9c-19.5,0-38.2,6.3-53.7,17.8c-1.2-0.9-2.4-1.8-3.7-2.6v-78.7h221.7
			c16.5,0,30-13.4,30-30S497.9,76.2,481.3,76.2L481.3,76.2z M61.6,279.6c4.1-11.6,15.2-20,28.2-20s24.1,8.3,28.2,20H61.6z
			 M138.8,279.6c-4.6-22.8-24.8-39.9-48.9-39.9S45.6,256.8,41,279.6H20.7c4.9-33.8,34-59.9,69.2-59.9s64.3,26.1,69.2,59.9H138.8z
			 M219.7,96.2h20v108.6c-6.4-2.3-13-3.8-20-4.6V96.2z M179.8,96.2h20v104c-6.8,0.8-13.5,2.3-20,4.6V96.2z M159.8,116.2h-7.5
			c-5.5,0-10-4.5-10-10c0-5.5,4.5-10,10-10h7.5V116.2z M181.5,279.6c4.1-11.6,15.2-20,28.2-20c13,0,24.1,8.3,28.2,20H181.5z
			 M299,279.6c-0.5-4.1-1.2-8.2-2.2-12.2c5.5-5,12.6-7.8,20.2-7.8c13,0,24.1,8.3,28.2,20H299z M317,219.7
			c35.2,0,64.3,26.1,69.2,59.9h-20.3c-4.6-22.8-24.8-39.9-48.9-39.9c-10,0-19.5,3-27.6,8.3c-3.1-5.9-6.9-11.5-11.2-16.5
			C289.6,223.8,303.1,219.7,317,219.7z M278.9,279.6h-20.3c-4.6-22.8-24.8-39.9-48.9-39.9c-14.5,0-27.5,6.2-36.6,16
			c-2.6-6.5-6-12.5-10-18.2c12.8-11.4,29.3-17.8,46.6-17.8C244.9,219.7,274,245.8,278.9,279.6L278.9,279.6z M479.4,20.7
			c2.6-0.7,5.3-0.3,7.6,1c2.3,1.3,4,3.5,4.7,6.1c0.7,2.6,0.3,5.3-1,7.6c-1.3,2.3-3.5,4-6.1,4.7L349.2,76.2H272L479.4,20.7z
			 M481.3,116.2H259.6v-20h221.7c5.5,0,10,4.5,10,10C491.3,111.7,486.9,116.2,481.3,116.2z"/>
		<circle class="st0" cx="360.9" cy="401.9" r="10"/>
	</g>
</g>
</svg>
