<?xml version="1.0" encoding="utf-8"?>
<!-- Generator: Adobe Illustrator 24.2.1, SVG Export Plug-In . SVG Version: 6.00 Build 0)  -->
<svg version="1.1" id="Capa_1" xmlns="http://www.w3.org/2000/svg" xmlns:xlink="http://www.w3.org/1999/xlink" x="0px" y="0px"
	 viewBox="0 0 512 512" style="enable-background:new 0 0 512 512;" xml:space="preserve">
<style type="text/css">
	.st0{fill:#FFFFFF;}
</style>
<g>
	<g>
		<path class="st0" d="M502.7,381.5c-4-1-8.2,1.4-9.2,5.5c-14.2,55.8-74.9,89.1-162.2,89.1H180.7c-43.4,0-81.4-8.5-110-24.5
			c-3.6-2-8.3-0.7-10.3,2.9c-2,3.6-0.7,8.3,2.9,10.3c30.9,17.3,71.5,26.5,117.4,26.5h150.5c76.2,0,158.1-26.6,176.9-100.5
			C509.2,386.6,506.8,382.5,502.7,381.5z"/>
	</g>
</g>
<g>
	<g>
		<g>
			<path class="st0" d="M285.6,294.8C285.6,294.8,285.6,294.8,285.6,294.8C285.6,294.8,285.6,294.8,285.6,294.8z"/>
			<path class="st0" d="M478.2,321.2c3.5-5.7,5.6-12.4,5.8-19.5c22.2-12.8,25.2-50.7,4.7-68c7.2-12.6,7.3-29.1-1.8-42.2
				c14.5-4.1,25.1-17.4,25.1-33.1c0-86.8-99.1-120.6-185.6-132.3c-4.1-0.6-8,2.3-8.5,6.5c-0.6,4.1,2.3,8,6.5,8.5
				c76.5,10.4,172.4,39.7,172.4,117.3c0,10.6-8.6,19.3-19.3,19.3c-406.6,0-36.5,0-443.2,0c-10.6,0-19.3-8.6-19.3-19.3
				C15.2,108.6,53.8,73,130,52.5c40.5-10.9,90.8-16.4,126.3-16.5c1.7,0,16.7,0,38.3,1.8c4.2,0.3,7.8-2.8,8.2-6.9
				c0.3-4.2-2.8-7.8-6.9-8.2c-13.1-1.1-26.9-1.8-40.1-1.9C189.7,20.8,92,36,40.2,77.9C13.5,99.5,0,126.6,0,158.4
				c0,15.7,10.5,28.9,24.9,33.1c-8.4,12.4-9.3,28.8-1.6,42.1c-14.1,12-18.7,36.4-8,55.1c2,3.2,6.8,8.2,12.6,11.8
				c0,7.6,2.2,14.7,5.9,20.8C14.5,325.1,0,340.7,0,359.2c0,35,12.6,64.3,37.3,86.9c1.4,1.3,3.3,2,5.1,2c6.9,0,10.2-8.5,5.1-13.2
				c-21.5-19.7-32.4-45.1-32.4-75.7c0-13.1,12.6-23.7,28.2-23.7h43.3l-0.1,37.3c-0.1,21.2,17.1,38.3,38.2,38.3h0.8
				c21.6,0,39.1-17.5,39.1-39v-25.2c0-1.8,1.4-3.2,3.2-3.2c6.4,0,12.1-3.3,15.3-8.3h47.3c4.5,3.3,17.6,23.9,46,23.9
				c28.4,0,41.5-20.6,46-23.9h146.3c15.4,0,28,10.5,28.2,23.5c0,4.2,3.4,7.5,7.6,7.5h0.1c4.2,0,7.5-3.5,7.5-7.7
				C511.8,340.5,497.3,325.1,478.2,321.2z M266.2,192.8h200.6c22.1,13.6,11.5,45.6-13,45.6c-162.8,0-12.7-0.4-237.6,0
				C231.4,230.3,236.1,221.8,266.2,192.8z M28.3,280.9c-7-12.5-3.4-28.8,4.9-35.8c7,5.6,15.9,9,25.6,9h39.6
				c7.2,0,13.1,5.6,13.6,12.7c-3.1-1.1-6.2-1.6-9.4-1.6c-11.4,0-16.1,5-48.9,26.5C42.6,292.5,33.3,287.5,28.3,280.9z M87.9,320.3H53
				c-4.5-3.4-7.8-8.3-9.2-13.9c4,0.6,13.2,1.2,16.7-1l34.8-22.7c8.9-5.8,16.1,1.1,16.8,1.4v17.9c0,2.8-2.3,5.1-5.1,5.1
				C98.2,307,90.7,312.5,87.9,320.3z M171,296.8c0,14.9,0,3.2,0,28.6c0,1.8-1.4,3.2-3.2,3.2c-10.1,0-18.3,8.3-18.3,18.3v25.2
				c0,21.6-26.6,31.5-41.1,17c-7.9-7.9-6.7-18-6.7-16.8c0-11,0.1-23.7,0.1-45.1c0-2.8,2.3-5.1,5.1-5.1c11.1,0,20.3-9,20.3-20.3
				c0-14.9,0-19.3,0-34.2c0-11.5-6.8-21.5-16.6-26c-9.6-4.5-15.2-2-51.7-2.7c-25.4,0-35.3-32.7-14-46.1H99l32.9,32.9
				c12.7,12.7,29.4,20.1,47.3,20.9C168,255.7,171.6,268.2,171,296.8z M142.7,215l-22.2-22.2h124.3L222.6,215
				C200.5,237.1,164.7,237,142.7,215z M186.1,320.3v-16l7.4-5.8l21.8,21.8H186.1z M300.7,335.4c-15,12.5-37.3,11.6-51.3-2.4
				c-10.9-10.9-33.1-33.1-44-44c2.7-1.3,11.2-12.9,22.3-4.7l31.6,23.4c10.8,8,24.8,7.9,35.6-0.9l27.7-22.5c5-4.1,10.9-4.5,16.2-1
				l9.3,6C295.8,340.4,302.2,334.2,300.7,335.4z M459,320.3H337.6l22.9-22.9l9.4,6.2c1.7,0.8,11.1,9.5,25,6.4
				c13.9-3,20.6-15.7,20.9-16c5.1-8.1,13.8-11.3,21.4-5.6c12.5,8.2,18.5,16.6,31.2,17.2C467.1,311.6,463.7,316.7,459,320.3z
				 M461.6,287.6c-16.1-11.9-15.5-11.5-16.4-12.1c-13.9-9.5-32.1-5.7-42.3,10.4c-0.3,0.3-4.1,7.7-11.3,9.2
				c-6.7,1.5-7.4-0.3-44.6-24.6c-10.8-7.1-23.8-6.3-34,2c-15.8,12.9-27.6,22.4-27.3,22.2c-0.1,0.1-0.1,0.1-0.1,0.1c0,0,0,0-0.1,0
				c0,0,0,0,0,0c0,0,0,0,0,0c0,0,0,0,0,0c-0.1,0-0.1,0.1-0.2,0.1c-5.3,4.3-11.6,4.5-17,0.5c-31.6-23.4-36.3-29.2-48.6-29.3
				c-10.4-0.1-17,5-25.1,11.9l-8.5,6.8v-17.3c0-20.1,4.3-13.6,267.7-13.6c9.3,0,18-3.1,25.1-8.8c7.4,6.4,10.9,19.7,6.6,31.5
				C481.5,288.2,471,294.6,461.6,287.6z"/>
		</g>
	</g>
</g>
<g>
	<g>
		<path class="st0" d="M395,70.2C395,70.2,395,70.2,395,70.2c-4.3-4.6-24.7-19-34.9-9.4c-4.5,4.2-5,11.1-1.4,20.5
			c4.3,11.1,10.7,20.8,22.5,20.8C397.7,102.1,406.5,82.3,395,70.2z M381.2,86.9c-0.6,0-1.7-0.2-2.6-1.2c-2.3-2.4-5.2-8.3-6.4-12.3
			c3.9,1.4,9.7,4.7,11.9,7.1C386.3,83,384.5,87,381.2,86.9z"/>
	</g>
</g>
<g>
	<g>
		<path class="st0" d="M336.4,128.8L336.4,128.8c-2.2-5.8-15.6-27-28.7-21.9c-13.1,5-8.9,29.7-6.6,35.5c1.8,4.7,5.4,8.5,10,10.5
			C326.3,159.7,342.5,144.6,336.4,128.8z M320.1,139.1c-2,0.8-4.1-0.2-4.9-2.2c-1.2-3.1-1.7-9.6-1.3-13.8c3.1,2.8,7.1,8,8.3,11.1v0
			C323,136.2,322,138.3,320.1,139.1z"/>
	</g>
</g>
<g>
	<g>
		<path class="st0" d="M256,54c-14,0-18.9,24.5-18.9,30.8c0,10.4,8.5,18.9,18.9,18.9s18.9-8.5,18.9-18.9C274.9,78.5,270,54,256,54z
			 M256,88.6c-2.1,0-3.8-1.7-3.8-3.8c0-3.3,1.9-9.6,3.8-13.4c1.9,3.8,3.8,10.1,3.8,13.4C259.8,86.9,258.1,88.6,256,88.6z"/>
	</g>
</g>
<g>
	<g>
		<path class="st0" d="M201.6,106c-6-1.5-12.1,1.7-18.1,9.7c-6.9,9.2-11.8,19.7-6,29.7c8.6,14.5,30.4,11.4,34.6-4.9
			C213.8,134.4,215.2,109.5,201.6,106z M197.6,136.7c-0.1,0.1-0.3,1.4-1.7,2.3c-2.9,1.7-6.4-1-5.6-4.2c0.8-3.2,4.2-8.8,7-12
			C198.1,127,198.4,133.5,197.6,136.7z"/>
	</g>
</g>
<g>
	<g>
		<path class="st0" d="M145.6,56.5c-11.7-5.7-26.9,12.2-30.5,19.4c-6.1,12.6,3.1,27.2,17,27.2c7,0,13.8-3.9,17.1-10.7
			C152.6,85.6,157.6,62.3,145.6,56.5z M135.6,85.8c-0.9,1.9-3.2,2.7-5.1,1.8c-1.9-0.9-2.7-3.2-1.8-5.1c1.4-3,5.9-7.8,9.2-10.4
			C138.1,76.4,137,82.9,135.6,85.8z"/>
	</g>
</g>
</svg>
