<?xml version="1.0" encoding="utf-8"?>
<!-- Generator: Adobe Illustrator 24.2.1, SVG Export Plug-In . SVG Version: 6.00 Build 0)  -->
<svg version="1.1" id="Capa_1" xmlns="http://www.w3.org/2000/svg" xmlns:xlink="http://www.w3.org/1999/xlink" x="0px" y="0px"
	 viewBox="0 0 512 512" style="enable-background:new 0 0 512 512;" xml:space="preserve">
<style type="text/css">
	.st0{fill:#FFFFFF;}
</style>
<g>
	<path class="st0" d="M509.3,289.4c-3.8-6.9-10.8-11-18.7-11h-18.3l-2.3-11.4c-2.2-10.8-8.8-20.3-18.1-26.2l-8.6-5.4
		c-0.2-0.1-0.3-0.3-0.4-0.6l-1.2-5.3c-0.2-1-0.5-2.1-0.9-3.3c-1.2-4-5.5-6.2-9.4-5c-4,1.2-6.2,5.5-5,9.4c0.2,0.8,0.4,1.5,0.6,2.1
		l1.2,5.3c0.9,4.2,3.5,7.8,7.1,10.1l8.7,5.4c5.8,3.6,10,9.6,11.3,16.4l1.7,8.4H121.1c-4.2,0-7.5,3.4-7.5,7.5s3.4,7.5,7.5,7.5h369.5
		c3.4,0,5,2.3,5.5,3.3c0.5,1,1.6,3.6-0.2,6.4l-12.6,20c-1.3,2.1-2.3,4.5-2.8,7l-4,20.4c-0.8,4.1,1.9,8,5.9,8.8
		c0.5,0.1,1,0.1,1.5,0.1c3.5,0,6.7-2.5,7.4-6.1l4-20.4c0.1-0.7,0.4-1.3,0.7-1.8l12.6-20C512.9,304.4,513.1,296.3,509.3,289.4
		L509.3,289.4z"/>
	<path class="st0" d="M479.2,376.5c-4.1-0.8-8,1.9-8.8,5.9l-1.8,9.2c-9.4,47.9-51.6,82.7-100.5,82.7H143.9
		c-48.9,0-91.1-34.8-100.5-82.7L31.4,330c-0.5-2.5-1.4-4.8-2.8-7l-12.6-20c-1.8-2.8-0.7-5.4-0.2-6.4c0.5-1,2.2-3.3,5.5-3.3H89
		c4.2,0,7.5-3.4,7.5-7.5s-3.4-7.5-7.5-7.5H56l1.7-8.4c1.4-6.7,5.5-12.7,11.3-16.4l7.5-4.7c4.3-2.7,7.5-7.2,8.6-12.2l0.9-3.9
		c1.7-7.6,6.9-14.1,13.9-17.4l13.2-6.1c1.7-0.8,3-2.2,3.8-3.9c3.4-7.9,10.4-13.5,18.9-14.9l6.7-1.1c4.3-0.7,8.2-3.2,10.6-6.9
		l4.4-6.6c3.7-5.5,9.6-9.5,16.1-10.7l10.2-2c4.2-0.8,7.9-3.2,10.3-6.8l1.4-2.1c4.7-6.9,12.5-11,20.8-11h6.5c4.2,0,8.1-1.6,11.1-4.6
		l1.9-1.9c4.7-4.7,11-7.4,17.8-7.4h5.9c6.7,0,13,2.6,17.8,7.4l1.9,1.9c2.9,2.9,6.9,4.6,11,4.6h6.6c8.3,0,16.1,4.1,20.8,11l1.4,2
		c2.4,3.6,6.1,6,10.4,6.9l10.1,2c6.5,1.3,12.4,5.2,16.1,10.7l3.7,5.5c2.9,4.3,7.4,7.3,12.6,8.1l5.5,0.9c8.5,1.4,15.6,7,18.9,14.9
		c0.7,1.7,2.1,3.1,3.8,3.9l7.6,3.5c3.8,1.8,8.2,0.1,10-3.7c1.8-3.8,0.1-8.2-3.7-10l-5.2-2.4c-5.8-11.2-16.4-19-29-21.2l-5.5-0.9
		c-1-0.2-1.9-0.8-2.5-1.6l-0.6-1c15.2-3.1,26.7-16.6,26.7-32.7c0-18.4-15-33.4-33.4-33.4c-18.4,0-33.4,15-33.4,33.4
		c0,3.1,0.4,6.2,1.3,9l-0.2,0c-0.3-0.1-0.6-0.2-0.8-0.5l-1.4-2c-7.5-11.1-19.9-17.6-33.3-17.6h-6.6c-0.1,0-0.3-0.1-0.4-0.2l-1.9-1.9
		c-7.6-7.6-17.7-11.8-28.4-11.8h-5.9c-10.7,0-20.8,4.2-28.4,11.8l-1.9,1.9c-0.1,0.1-0.3,0.2-0.4,0.2H218c-4.3-4.6-9.1-8.4-14.3-11.3
		l-1.4-15.4c-0.3-3.8-2.1-7.2-5-9.6c-0.8-0.7-1.7-1.3-2.7-1.7L193,71.4c8.8-4.9,14.1-14.6,13.2-25c-1.3-14.3-14-25-28.3-23.7
		c-3.7,0.3-7.3,1.4-10.5,3.3c-3.5-1.2-7.2-1.7-10.9-1.4c-6.9,0.6-13.2,3.9-17.7,9.2c-4.5,5.3-6.6,12.1-6,19
		c0.9,10.4,7.8,19,17.3,22.3l1.7,18.9c-0.8,0.6-1.6,1.4-2.3,2.2c-2.4,2.9-3.6,6.6-3.2,10.3l1.1,12.4c-10.2-3.5-20.8-4.5-30.8-2.7
		l-10.8-11c-2.6-2.7-6.2-4.2-10-4.3c-1.1,0-2.1,0.1-3.2,0.3L79.3,87.8C83,78.4,81,67.5,73.7,60c-10.1-10.3-26.6-10.5-36.9-0.4
		c-2.7,2.6-4.8,5.8-6.1,9.2c-3.5,1.3-6.6,3.2-9.3,5.9c-10.3,10.1-10.5,26.6-0.4,36.9c7.3,7.4,18.1,9.7,27.5,6.3l13.2,13.5
		c-0.2,1-0.4,2.1-0.4,3.2c0,3.8,1.4,7.4,4,10.1l10.8,11c-3.3,16.3,0.9,34.4,11.2,49.8c-8.1,5.7-13.9,14.3-16,24.1l-0.9,3.9
		c-0.2,1.1-0.9,2-1.9,2.6l-7.5,4.7c-9.3,5.8-15.9,15.4-18.1,26.2l-2.3,11.4H21.4c-7.9,0-14.9,4.1-18.7,11c-3.8,6.9-3.6,15,0.6,21.7
		l12.6,20c0.4,0.6,0.6,1.2,0.7,1.8l12.1,61.7c10.7,55,59.2,94.9,115.3,94.9h224.2c56,0,104.5-39.9,115.3-94.9l1.8-9.2
		C485.9,381.3,483.3,377.3,479.2,376.5L479.2,376.5z M364.4,121.1c10.1,0,18.3,8.2,18.3,18.3s-8.2,18.3-18.3,18.3
		s-18.3-8.2-18.3-18.3S354.3,121.1,364.4,121.1z M147.7,51.5c-0.3-2.9,0.6-5.8,2.5-8.1c1.9-2.3,4.5-3.6,7.5-3.9c0.3,0,0.7,0,1,0
		c2,0,3.9,0.5,5.6,1.5c2.8,1.6,6.3,1.3,8.7-0.8c1.8-1.5,3.9-2.4,6.2-2.6c6.1-0.5,11.4,4,12,10c0.5,5.4-2.9,10.2-8.1,11.6
		c-3.5,0.9-5.9,4.3-5.6,7.9l2,22.1l-3.9,0.3l-9.1,0.8l-2-22.1c-0.3-3.6-3.2-6.5-6.8-6.8C152.4,61,148.2,56.8,147.7,51.5L147.7,51.5z
		 M162.8,124.7l-1.7-18.6l26.2-2.3l1.7,18.6c0.2,2.7,1.9,5.1,4.4,6.2c2,0.9,4,2.1,5.9,3.4c-6.4,3-11.9,7.6-16.1,13.5
		c-2.1-2.8-4.3-5.4-6.7-7.9c-4.2-4.3-8.9-8.1-13.8-11.2C162.9,125.9,162.9,125.3,162.8,124.7L162.8,124.7z M50,101.2
		c-1.5,0-2.9,0.4-4.2,1.3c-4.4,3-10.3,2.4-14-1.4c-4.3-4.3-4.2-11.3,0.2-15.6c1.7-1.6,3.7-2.7,6-3c3.2-0.5,5.7-3,6.3-6.1
		c0.4-2.3,1.5-4.3,3.1-5.9c4.3-4.3,11.3-4.2,15.6,0.2c3.8,3.8,4.2,9.8,1.1,14.1c-2.1,3-1.8,7,0.7,9.7l15.5,15.9l-0.4,0.4l-9,8.8
		l-15.5-15.9C53.9,102,52,101.2,50,101.2z M95.5,116.3l13.1,13.4c1.9,1.9,4.7,2.7,7.3,2c16.4-4.3,36,2.1,50,16.4
		c0.9,0.9,1.7,1.8,2.5,2.8c-9.5,2.5-17.9,8.4-23.4,16.6l-4.4,6.6c-0.1,0.2-0.4,0.4-0.6,0.4l-6.7,1.1c-12.6,2.1-23.2,9.9-29,21.2
		l-3.5,1.6c-9.6-13.3-13.1-29.3-9.1-42.9c0.8-2.6,0-5.4-1.8-7.4l-13.1-13.4L95.5,116.3z"/>
	<path class="st0" d="M150.6,235.8c0,14.3,14.2,25.5,32.4,25.5s32.4-11.2,32.4-25.5s-14.2-25.5-32.4-25.5S150.6,221.5,150.6,235.8
		L150.6,235.8z M200.2,235.8c0,4.9-7.1,10.4-17.3,10.4c-10.2,0-17.3-5.5-17.3-10.4c0-4.9,7.1-10.4,17.3-10.4
		C193.1,225.4,200.2,230.9,200.2,235.8z"/>
	<path class="st0" d="M229.3,168h-5.4c-4.2,0-7.5,3.4-7.5,7.5s3.4,7.5,7.5,7.5h5.4c4.2,0,7.5-3.4,7.5-7.5S233.4,168,229.3,168z"/>
	<path class="st0" d="M244.3,221.4c-4.2,0-7.5,3.4-7.5,7.5c0,4.2,3.4,7.5,7.5,7.5h5.7c4.2,0,7.5-3.4,7.5-7.5c0-4.2-3.4-7.5-7.5-7.5
		H244.3z"/>
	<path class="st0" d="M326.5,186.7c-20,0-36.2,14-36.2,31.2s16.2,31.2,36.2,31.2c20,0,36.2-14,36.2-31.2S346.4,186.7,326.5,186.7z
		 M326.5,234c-11.7,0-21.2-7.2-21.2-16.1c0-8.9,9.5-16.1,21.2-16.1s21.2,7.2,21.2,16.1C347.6,226.8,338.1,234,326.5,234z"/>
</g>
</svg>
