<?xml version="1.0" encoding="utf-8"?>
<!-- Generator: Adobe Illustrator 24.2.1, SVG Export Plug-In . SVG Version: 6.00 Build 0)  -->
<svg version="1.1" id="Livello_1" xmlns="http://www.w3.org/2000/svg" xmlns:xlink="http://www.w3.org/1999/xlink" x="0px" y="0px"
	 viewBox="0 0 1382.8 357" style="enable-background:new 0 0 1382.8 357;" xml:space="preserve">
<style type="text/css">
	.st0{fill:#FFFFFF;}
</style>
<g id="Livello_2_1_">
	<g id="Calque_1">
		<path class="st0" d="M1325.6,151.4c-33.1,0-57.2,24.1-57.2,59.1s24.4,59.1,57.2,59.1s57.2-23.9,57.2-59.1
			S1358.4,151.4,1325.6,151.4z M1325.6,239.3c-16.8,0-29.3-11.1-29.3-28.5c0-17.6,12.5-28.5,29.3-28.5c17.1,0,29.3,10.9,29.3,28.5
			C1354.6,227.9,1342.4,239.3,1325.6,239.3z"/>
		<path class="st0" d="M1196.8,151.4c-33.1,0-57.2,24.1-57.2,59.1s24.1,59.1,57.2,59.1s57.2-24.2,57.2-59.1
			S1229.6,151.4,1196.8,151.4z M1196.8,239.3c-16.8,0-29.3-11.1-29.3-28.5c0-17.6,12.5-28.5,29.3-28.5c17.1,0,29.3,10.9,29.3,28.5
			C1226.1,227.9,1213.9,239.3,1196.8,239.3z"/>
		<path class="st0" d="M511.6,103.3h-29v64c-8.7-10.2-21.5-16.1-35-16c-29,0-51.5,24.1-51.5,59.1c0,35.3,22.5,59.1,51.5,59.1
			c13.8,0.1,26.9-6.1,35.5-16.8l3.3,14.4h30.4l-5.2-23.6L511.6,103.3z M453.5,239c-16.8,0.3-29.3-11.1-29.3-28.5
			c0-17.6,12.5-28.5,29.3-28.5c17.1,0,29.3,10.9,29.3,28.5C482.8,227.9,470.6,239,453.5,239z"/>
		<path class="st0" d="M732.7,101.2c-10.2-0.2-18.6,8-18.7,18.2s8,18.6,18.2,18.7c10.2,0.2,18.6-8,18.7-18.2c0-0.1,0-0.2,0-0.3
			c0.2-10-7.7-18.2-17.7-18.4C733,101.2,732.8,101.2,732.7,101.2z"/>
		<polygon class="st0" points="815.9,245.8 793.7,153.8 762.5,153.8 792.6,267.2 839.3,267.2 869.6,153.5 837.9,153.5 		"/>
		<path class="st0" d="M934.5,151.4c-32.8,0-56.7,23.9-56.7,59.1c0,36.3,23.6,59.1,60.5,59.1c16,0.2,31.8-4.4,45.3-13l-11.1-25
			c-10.4,5.7-22.1,8.7-33.9,8.7c-15.2,0-25.8-6-30.7-17.1h81.9c0.9-4.3,1.4-8.8,1.4-13.2C991.2,174.7,966.8,151.4,934.5,151.4z
			 M906.3,200.5c3.5-13.3,13.3-20.1,27.9-20.1c14.9,0,24.7,7.1,27.9,20.1H906.3z"/>
		<rect x="718" y="153.5" class="st0" width="29" height="113.7"/>
		<rect x="662.9" y="103.3" class="st0" width="29" height="163.8"/>
		<path class="st0" d="M587.8,151.1c-32.8,0-56.7,23.9-56.7,59.1c-0.3,36.1,23.6,59.1,60.5,59.1c16,0,31.7-4.5,45.3-13l-11.1-24.9
			c-10.4,5.7-22.1,8.7-33.9,8.7c-15.2,0-25.8-6-30.7-17.1h81.9c0.9-4.4,1.4-8.8,1.4-13.3C644.5,174.4,620.1,151.1,587.8,151.1z
			 M559.3,200.5c3-13.3,13-20.1,27.9-20.1s24.7,7.1,27.9,20.1H559.3z"/>
		<path class="st0" d="M1074.2,151.4c-13.5-0.1-26.3,5.8-35,16v-64h-29v140.2l-5.2,23.6h30.4l3.3-14.4c8.7,10.7,21.7,16.9,35.5,16.8
			c29,0,51.5-23.9,51.5-59.1C1125.7,175.5,1103.2,151.4,1074.2,151.4z M1068.2,239c-17.1,0-29.3-11.1-29.3-28.5
			c0-17.6,12.2-28.5,29.3-28.5c16.8,0,29.3,10.9,29.3,28.5C1097.5,227.9,1085,239.3,1068.2,239L1068.2,239z"/>
		<path class="st0" d="M233.8,0l-16.6,157.3L189.1,24.7l-89,18.7L128,176L0,203.2L22.8,309l225.4,48l51.5-115.3L324.1,9.5L233.8,0z
			 M146.8,203.5c0.9-1.2,2.1-2.1,3.5-2.7c1.4-0.5,3-0.4,4.3,0.4l9.6,9.3c1.7,1.6,2.3,4.1,1.3,6.3l-26.2,26.6
			c-0.8,0.8-1.4,1.7-1.7,2.8c-0.2,0.6-0.2,1.2-0.1,1.7c0.1,0.9,0.5,1.8,1.1,2.4l26.4,26.8c0.5,0.8,0.7,1.7,0.6,2.6
			c0.1,1.4-0.4,2.8-1.5,3.7l-9,9c-1.7,1.5-3.5,1.9-5.6,0.8l-42.8-42.4c-1.3-1.3-1.8-3.2-1.4-4.9c0.4-1.1,1-2.1,1.9-2.9L146.8,203.5z
			 M203.7,249.8c0.4-0.5,0.7-1.2,0.8-1.8c0.4-1.6-0.1-3.3-1.2-4.4l-45.2-45.5c-1-1.5-1.1-3.4-0.2-5l9.7-10.2
			c1.5-1.5,3.7-1.9,5.6-1.2c0.8,0.4,1.6,1,2.3,1.6l60.1,60.1c1.8,1.8,1.9,4.6,0.4,6.6l-61.6,61.8c-0.9,0.9-2.1,1.3-3.3,1.2
			c-1.3,0.1-2.6-0.4-3.5-1.4l-8.1-8.1c-1.1-0.9-1.9-2.1-2.3-3.5c-0.2-0.8-0.2-1.6,0.1-2.4c0.4-1.4,1.3-2.7,2.5-3.6L203.7,249.8z"/>
	</g>
</g>
</svg>
