<svg xmlns="http://www.w3.org/2000/svg" viewBox="0 0 2701.71 1320.41"><defs><style>.cls-1{fill:#edf4ff;}.cls-2,.cls-8{fill:#c4d9ed;}.cls-3{fill:#d5e7f7;}.cls-4{fill:#dceaf9;}.cls-5{opacity:0.8;}.cls-6{fill:#adc9e0;}.cls-7{fill:#ebf2f9;}.cls-22,.cls-8{opacity:0.4;}.cls-9{fill:#a8d29f;}.cls-10{fill:#f99746;}.cls-11{fill:#699ff0;}.cls-12{fill:#ff9136;}.cls-13{fill:#2b478b;}.cls-14{fill:#85b2ef;}.cls-15{fill:#afcdfb;}.cls-16{fill:#578ddd;}.cls-17{fill:#ed7d2b;}.cls-18{fill:#5c96e3;}.cls-19{fill:#d3671e;}.cls-20{fill:#f1a34f;}.cls-21{fill:#e78b37;}.cls-22{fill:#d86713;}.cls-23{fill:#ffb27d;}.cls-24{fill:#ed975d;}.cls-25{fill:#6bb7bf;}.cls-26{fill:#1c4575;}.cls-27{fill:#5aa9ad;}</style></defs><g id="Livello_2" data-name="Livello 2"><g id="Слой_2" data-name="Слой 2"><path class="cls-1" d="M2701.58,967.63c-.12,5.88-.24,11.75-.6,17.5s-.48,11.38-1,17.14a698.81,698.81,0,0,1-8.62,71.54c-1.2,6.82-2.4,13.54-3.72,20.12-.24,1.56-.6,3.12-.84,4.56l-.24.84c-.84,4.07-1.67,8-2.51,12.1-1.56,7.07-3.24,14.14-4.92,21-.36,1.32-.72,2.52-1,3.84-4.56,18-9.47,34.86-14.62,50.69l-2.52,7.9c-2.28,7-4.55,13.54-6.83,20-1.68,4.68-3.36,9.11-4.91,13.42-8.75,23.25-17.26,42.55-24.09,57.16-6.35,13.54-11.74,24.93-14.5,30.68-1.2,2.52-1.92,4-1.92,4s-1328.56.24-2061.92.35H74.29c0-.11-.12-.11-.12-.11-1.67-1.32-3.23-2.52-4.79-3.84h-.12c-.72-.6-1.44-1.08-2-1.68L32.35,1277a167.11,167.11,0,0,1-18.69-34.63c-9.23-22.53-13.66-47-13.66-72.5,0-1.2,0-2.52.12-3.84,0-2.27.12-4.67.12-7L.6,1153c.6-7.43,1.44-14.86,2.64-22.28,0-.25.12-.48.12-.72.23-1.2.47-2.53.59-3.84.24-1.56.6-3.11,1-4.68,1.08-5.51,2.4-11,3.84-16.65.24-1.32.6-2.64,1-3.95.48-1.56.83-3.12,1.43-4.68,1.32-4.91,3-9.82,4.68-14.86,3.23-9.59,7.07-19.17,11.38-28.88a18.34,18.34,0,0,1,1-2.27c3.95-8.75,8.27-17.38,12.94-26.13A451.34,451.34,0,0,1,65,984.89c1.92-2.76,3.83-5.51,5.75-8.15a496,496,0,0,1,32-40.62,605.11,605.11,0,0,1,45.9-47.45c3.71-3.48,7.43-6.84,11.14-10.19.84-.72,1.68-1.44,2.52-2.28,2.16-1.79,4.31-3.71,6.47-5.51,9.11-7.91,18-15.34,26.72-22.53,4.44-3.59,8.75-7.07,13.07-10.54,8.5-6.83,16.77-13.54,24.68-20,24.33-20,45.9-38.82,62.91-60A190.63,190.63,0,0,0,311.92,735a170.63,170.63,0,0,0,19.41-47.21c1-4.43,1.92-9,2.64-13.66a217.08,217.08,0,0,0,2.87-41.58A319.76,319.76,0,0,0,334,594.24c-.36-2.87-.84-5.87-1.32-9A546.46,546.46,0,0,0,321.15,530q-2.16-8.44-4.68-17.25c-2.87-10.19-5.15-20.26-7-30.08a285.52,285.52,0,0,1-4.67-55.24,251.29,251.29,0,0,1,4.67-47v-.24a280.65,280.65,0,0,1,11.15-41.7C378.07,175.31,573.39,78.85,625.28,57.28c73.93-30.8,161.53-48,252.48-54.4,7.43-.48,14.86-1,22.29-1.32C921,.48,942.23,0,963.32,0,972,0,980.45.12,989,.24c14.26.36,28.4.84,42.66,1.68,13.18.72,26.25,1.56,39.31,2.64a1293,1293,0,0,1,156.14,22.53,854.31,854.31,0,0,1,121.62,34.62l.12.12c86.52,32,152,73.82,204.2,117.32,12.1,10.06,23.6,20.25,34.39,30.44,1.43,1.31,3,2.75,4.43,4.19,3.36,3.11,6.59,6.23,9.83,9.47,1.43,1.43,3,2.87,4.43,4.31,9.47,9.47,18.57,18.93,27.2,28.16,4.32,4.67,8.63,9.35,12.82,13.9,22.77,25.16,42.9,48.65,62.08,68.9,2.39,2.64,4.79,5,7.19,7.55,32.95,33.56,63.51,56.32,100.89,58.84,23.49,1.55,50.93-2.4,81.73-8.39,3.11-.6,6.11-1.2,9.23-1.92,47.33-9.46,102.45-22.89,163.68-28.51,79.09-7.32,168.61-1.57,265.19,42.29,3.11,1.44,6.11,2.88,9.23,4.32,14.14,6.83,28.4,14.38,42.78,22.89,3,1.67,6,3.47,9,5.27q21.93,13.47,44.46,29.95a6.68,6.68,0,0,1,1.08.85c6.47,4.67,12.94,9.7,19.41,14.85,7.55,6,15.22,12.23,22.89,18.81,18.45,15.94,37.27,33.44,56.08,52.85,13.66,14,26.36,28.16,37.87,42.54,8,9.83,15.57,19.78,22.52,29.72,1.32,1.8,2.52,3.6,3.84,5.39A594.5,594.5,0,0,1,2637.59,689c1.08,2.16,2.28,4.43,3.48,6.59a544.94,544.94,0,0,1,31.27,74.17c.72,2.16,1.44,4.19,2.16,6.24,3.59,11.14,6.71,22.28,9.59,33.43,3.83,15.22,6.95,30.31,9.46,45.41A607.35,607.35,0,0,1,2701.58,967.63Z"/><path class="cls-2" d="M502.21,380.46v818.09H334V674.17a217.08,217.08,0,0,0,2.87-41.58A319.76,319.76,0,0,0,334,594.24V380.46Z"/><path class="cls-3" d="M464.34,380.46v818.09H296.1v-441A190.63,190.63,0,0,0,311.92,735a170.63,170.63,0,0,0,19.41-47.21c1-4.43,1.92-9,2.64-13.66a217.08,217.08,0,0,0,2.87-41.58A319.76,319.76,0,0,0,334,594.24c-.36-2.87-.84-5.87-1.32-9A546.46,546.46,0,0,0,321.15,530q-2.16-8.44-4.68-17.25c-2.87-10.19-5.15-20.26-7-30.08a285.52,285.52,0,0,1-4.67-55.24,251.29,251.29,0,0,1,4.67-47Z"/><path class="cls-2" d="M309.52,380.46a251.29,251.29,0,0,0-4.67,47H464.34V380.22H309.52Z"/><path class="cls-2" d="M464.34,482.68V530H321.15q-2.16-8.44-4.68-17.25c-2.87-10.19-5.15-20.26-7-30.08Z"/><path class="cls-2" d="M464.34,585.25v47.34H336.84A319.76,319.76,0,0,0,334,594.24c-.36-2.87-.84-5.87-1.32-9Z"/><path class="cls-2" d="M464.34,687.83V735H311.92a170.63,170.63,0,0,0,19.41-47.21Z"/><rect class="cls-2" x="296.16" y="790.33" width="168.19" height="47.27"/><rect class="cls-2" x="296.16" y="892.86" width="168.19" height="47.27"/><rect class="cls-2" x="296.16" y="995.39" width="168.19" height="47.27"/><rect class="cls-2" x="296.16" y="1097.92" width="168.19" height="47.27"/><path class="cls-2" d="M233.19,817.6v380.95H65V984.89c1.92-2.76,3.83-5.51,5.75-8.15a496,496,0,0,1,32-40.62,605.11,605.11,0,0,1,45.9-47.45c3.71-3.48,7.43-6.84,11.14-10.19.84-.72,1.68-1.44,2.52-2.28,2.16-1.79,4.31-3.71,6.47-5.51,9.11-7.91,18-15.34,26.72-22.53,4.44-3.59,8.75-7.07,13.07-10.54C217,830.79,225.28,824.08,233.19,817.6Z"/><path class="cls-3" d="M195.44,848.16v350.39H27.2V1052.47a18.34,18.34,0,0,1,1-2.27c3.95-8.75,8.27-17.38,12.94-26.13A451.34,451.34,0,0,1,65,984.89c1.92-2.76,3.83-5.51,5.75-8.15a496,496,0,0,1,32-40.62,605.11,605.11,0,0,1,45.9-47.45c3.71-3.48,7.43-6.84,11.14-10.19.84-.72,1.68-1.44,2.52-2.28,2.16-1.79,4.31-3.71,6.47-5.51C177.83,862.78,186.7,855.35,195.44,848.16Z"/><path class="cls-2" d="M195.44,848.16v40.51H148.59c3.71-3.48,7.43-6.84,11.14-10.19.84-.72,1.68-1.44,2.52-2.28,2.16-1.79,4.31-3.71,6.47-5.51C177.83,862.78,186.7,855.35,195.44,848.16Z"/><path class="cls-2" d="M195.44,936.12v40.62H70.7a496,496,0,0,1,32-40.62Z"/><path class="cls-2" d="M195.44,1024.07v40.63H27.2v-12.23a18.34,18.34,0,0,1,1-2.27c3.95-8.75,8.27-17.38,12.94-26.13Z"/><rect class="cls-2" x="27.22" y="1112.16" width="168.19" height="40.58"/><rect class="cls-4" x="522.77" y="1173.43" width="70.45" height="102.73"/><polygon class="cls-3" points="1559.31 765.11 1559.31 701.66 1540.05 701.66 1540.05 592.57 1436.78 592.57 1436.78 701.66 1340.23 701.66 1340.23 523.9 1233.69 523.9 1233.69 639.29 1209.4 639.29 1209.4 501.52 1102.86 501.52 1102.86 759.83 968.12 759.83 968.12 910.46 917.77 910.46 917.77 948.41 802.13 948.41 802.13 883.07 735.74 883.07 735.74 705.51 653.72 705.51 653.72 1033.28 571.71 1033.28 571.71 1318.49 653.72 1318.49 724.02 1318.49 735.74 1318.49 802.13 1318.49 839.66 1318.49 899.77 1318.49 917.77 1318.49 968.12 1318.49 1015.41 1318.49 1102.86 1318.49 1129.64 1318.49 1182.92 1318.49 1209.4 1318.49 1233.69 1318.49 1289.46 1318.49 1327.43 1318.49 1340.23 1318.49 1436.78 1318.49 1538.33 1318.49 1540.05 1318.49 1559.31 1318.49 1641.59 1318.49 1641.59 765.11 1559.31 765.11"/><rect class="cls-2" x="1102.8" y="518.96" width="106.6" height="26.32"/><rect class="cls-2" x="1102.8" y="568.4" width="106.6" height="26.32"/><rect class="cls-2" x="1102.8" y="612.89" width="106.6" height="26.32"/><rect class="cls-2" x="1233.61" y="612.89" width="106.6" height="26.32"/><rect class="cls-2" x="1233.61" y="568.4" width="106.6" height="26.32"/><rect class="cls-2" x="1233.61" y="523.99" width="106.6" height="26.32"/><rect class="cls-2" x="1102.8" y="656.02" width="237.43" height="26.32"/><rect class="cls-2" x="1102.8" y="699.15" width="237.43" height="26.32"/><rect class="cls-2" x="653.76" y="705.53" width="82.74" height="40.63"/><rect class="cls-2" x="653.76" y="765.94" width="82.74" height="40.63"/><rect class="cls-2" x="653.76" y="826.36" width="82.74" height="40.63"/><rect class="cls-2" x="653.76" y="889.69" width="82.74" height="40.63"/><rect class="cls-2" x="653.76" y="951.06" width="82.74" height="40.63"/><rect class="cls-2" x="653.76" y="1012.43" width="82.74" height="40.63"/><rect class="cls-2" x="653.76" y="1076.64" width="82.74" height="40.63"/><rect class="cls-2" x="1102.8" y="741.3" width="237.43" height="16.71"/><rect class="cls-2" x="735.35" y="705.53" width="30.51" height="177.54"/><rect class="cls-2" x="802.13" y="883.07" width="61.36" height="65.34"/><polygon class="cls-2" points="1340.2 523.99 1361.38 523.99 1361.38 701.66 1340.23 701.66 1340.2 523.99"/><rect class="cls-2" x="1209.4" y="501.52" width="13" height="137.68"/><g class="cls-5"><rect class="cls-2" x="990.14" y="785.75" width="18.06" height="25.46"/><rect class="cls-2" x="1023.91" y="785.75" width="18.06" height="25.46"/><rect class="cls-2" x="1056.93" y="785.75" width="18.06" height="25.46"/><rect class="cls-2" x="1088.23" y="785.75" width="18.06" height="25.46"/><rect class="cls-2" x="1120.14" y="785.75" width="18.06" height="25.46"/><rect class="cls-2" x="1152.41" y="785.75" width="18.06" height="25.46"/><rect class="cls-2" x="1186.19" y="785.75" width="18.06" height="25.46"/><rect class="cls-2" x="1219.21" y="785.75" width="18.06" height="25.46"/><rect class="cls-2" x="1250.51" y="785.75" width="18.06" height="25.46"/><rect class="cls-2" x="1282.42" y="785.75" width="18.06" height="25.46"/><rect class="cls-2" x="1315.67" y="785.75" width="18.06" height="25.46"/><rect class="cls-2" x="1349.44" y="785.75" width="18.06" height="25.46"/><rect class="cls-2" x="1382.46" y="785.75" width="18.06" height="25.46"/><rect class="cls-2" x="1413.77" y="785.75" width="18.06" height="25.46"/><rect class="cls-2" x="1445.68" y="785.75" width="18.06" height="25.46"/><rect class="cls-2" x="1477.95" y="785.75" width="18.06" height="25.46"/><rect class="cls-2" x="1511.72" y="785.75" width="18.06" height="25.46"/><rect class="cls-2" x="1544.74" y="785.75" width="18.06" height="25.46"/><rect class="cls-2" x="1576.05" y="785.75" width="18.06" height="25.46"/><rect class="cls-2" x="1607.95" y="785.75" width="18.06" height="25.46"/><rect class="cls-2" x="990.14" y="830.67" width="18.06" height="25.46"/><rect class="cls-2" x="1023.91" y="830.67" width="18.06" height="25.46"/><rect class="cls-2" x="1056.93" y="830.67" width="18.06" height="25.46"/><rect class="cls-2" x="1088.23" y="830.67" width="18.06" height="25.46"/><rect class="cls-2" x="1120.14" y="830.67" width="18.06" height="25.46"/><rect class="cls-2" x="1152.41" y="830.67" width="18.06" height="25.46"/><rect class="cls-2" x="1186.19" y="830.67" width="18.06" height="25.46"/><rect class="cls-2" x="1219.21" y="830.67" width="18.06" height="25.46"/><rect class="cls-2" x="1250.51" y="830.67" width="18.06" height="25.46"/><rect class="cls-2" x="1282.42" y="830.67" width="18.06" height="25.46"/><rect class="cls-2" x="1315.67" y="830.67" width="18.06" height="25.46"/><rect class="cls-2" x="1349.44" y="830.67" width="18.06" height="25.46"/><rect class="cls-2" x="1382.46" y="830.67" width="18.06" height="25.46"/><rect class="cls-2" x="1413.77" y="830.67" width="18.06" height="25.46"/><rect class="cls-2" x="1445.68" y="830.67" width="18.06" height="25.46"/><rect class="cls-2" x="1477.95" y="830.67" width="18.06" height="25.46"/><rect class="cls-2" x="1511.72" y="830.67" width="18.06" height="25.46"/><rect class="cls-2" x="1544.74" y="830.67" width="18.06" height="25.46"/><rect class="cls-2" x="1576.05" y="830.67" width="18.06" height="25.46"/><rect class="cls-2" x="1607.95" y="830.67" width="18.06" height="25.46"/><rect class="cls-2" x="990.14" y="874.91" width="18.06" height="25.46"/><rect class="cls-2" x="1023.91" y="874.91" width="18.06" height="25.46"/><rect class="cls-2" x="1056.93" y="874.91" width="18.06" height="25.46"/><rect class="cls-2" x="1088.23" y="874.91" width="18.06" height="25.46"/><rect class="cls-2" x="1120.14" y="874.91" width="18.06" height="25.46"/><rect class="cls-2" x="1152.41" y="874.91" width="18.06" height="25.46"/><rect class="cls-2" x="1186.19" y="874.91" width="18.06" height="25.46"/><rect class="cls-2" x="1219.21" y="874.91" width="18.06" height="25.46"/><rect class="cls-2" x="1250.51" y="874.91" width="18.06" height="25.46"/><rect class="cls-2" x="1282.42" y="874.91" width="18.06" height="25.46"/><rect class="cls-2" x="1315.67" y="874.91" width="18.06" height="25.46"/><rect class="cls-2" x="1349.44" y="874.91" width="18.06" height="25.46"/><rect class="cls-2" x="1382.46" y="874.91" width="18.06" height="25.46"/><rect class="cls-2" x="1413.77" y="874.91" width="18.06" height="25.46"/><rect class="cls-2" x="1445.68" y="874.91" width="18.06" height="25.46"/><rect class="cls-2" x="1477.95" y="874.91" width="18.06" height="25.46"/><rect class="cls-2" x="1511.72" y="874.91" width="18.06" height="25.46"/><rect class="cls-2" x="1544.74" y="874.91" width="18.06" height="25.46"/><rect class="cls-2" x="1576.05" y="874.91" width="18.06" height="25.46"/><rect class="cls-2" x="1607.95" y="874.91" width="18.06" height="25.46"/><rect class="cls-2" x="990.14" y="921.91" width="18.06" height="25.46"/><rect class="cls-2" x="1023.91" y="921.91" width="18.06" height="25.46"/><rect class="cls-2" x="1056.93" y="921.91" width="18.06" height="25.46"/><rect class="cls-2" x="1088.23" y="921.91" width="18.06" height="25.46"/><rect class="cls-2" x="1120.14" y="921.91" width="18.06" height="25.46"/><rect class="cls-2" x="1152.41" y="921.91" width="18.06" height="25.46"/><rect class="cls-2" x="1186.19" y="921.91" width="18.06" height="25.46"/><rect class="cls-2" x="1219.21" y="921.91" width="18.06" height="25.46"/><rect class="cls-2" x="1250.51" y="921.91" width="18.06" height="25.46"/><rect class="cls-2" x="1282.42" y="921.91" width="18.06" height="25.46"/><rect class="cls-2" x="1315.67" y="921.91" width="18.06" height="25.46"/><rect class="cls-2" x="1349.44" y="921.91" width="18.06" height="25.46"/><rect class="cls-2" x="1382.46" y="921.91" width="18.06" height="25.46"/><rect class="cls-2" x="1413.77" y="921.91" width="18.06" height="25.46"/><rect class="cls-2" x="1445.68" y="921.91" width="18.06" height="25.46"/><rect class="cls-2" x="1477.95" y="921.91" width="18.06" height="25.46"/><rect class="cls-2" x="1511.72" y="921.91" width="18.06" height="25.46"/><rect class="cls-2" x="1544.74" y="921.91" width="18.06" height="25.46"/><rect class="cls-2" x="1576.05" y="921.91" width="18.06" height="25.46"/><rect class="cls-2" x="1607.95" y="921.91" width="18.06" height="25.46"/><rect class="cls-2" x="990.14" y="966.83" width="18.06" height="25.46"/><rect class="cls-2" x="1023.91" y="966.83" width="18.06" height="25.46"/><rect class="cls-2" x="1056.93" y="966.83" width="18.06" height="25.46"/><rect class="cls-2" x="1088.23" y="966.83" width="18.06" height="25.46"/><rect class="cls-2" x="1120.14" y="966.83" width="18.06" height="25.46"/><rect class="cls-2" x="1152.41" y="966.83" width="18.06" height="25.46"/><rect class="cls-2" x="1186.19" y="966.83" width="18.06" height="25.46"/><rect class="cls-2" x="1219.21" y="966.83" width="18.06" height="25.46"/><rect class="cls-2" x="1250.51" y="966.83" width="18.06" height="25.46"/><rect class="cls-2" x="1282.42" y="966.83" width="18.06" height="25.46"/><rect class="cls-2" x="1315.67" y="966.83" width="18.06" height="25.46"/><rect class="cls-2" x="1349.44" y="966.83" width="18.06" height="25.46"/><rect class="cls-2" x="1382.46" y="966.83" width="18.06" height="25.46"/><rect class="cls-2" x="1413.77" y="966.83" width="18.06" height="25.46"/><rect class="cls-2" x="1445.68" y="966.83" width="18.06" height="25.46"/><rect class="cls-2" x="1477.95" y="966.83" width="18.06" height="25.46"/><rect class="cls-2" x="1511.72" y="966.83" width="18.06" height="25.46"/><rect class="cls-2" x="1544.74" y="966.83" width="18.06" height="25.46"/><rect class="cls-2" x="1576.05" y="966.83" width="18.06" height="25.46"/><rect class="cls-2" x="1607.95" y="966.83" width="18.06" height="25.46"/><rect class="cls-2" x="990.14" y="1011.06" width="18.06" height="25.46"/><rect class="cls-2" x="1023.91" y="1011.06" width="18.06" height="25.46"/><rect class="cls-2" x="1056.93" y="1011.06" width="18.06" height="25.46"/><rect class="cls-2" x="1088.23" y="1011.06" width="18.06" height="25.46"/><rect class="cls-2" x="1120.14" y="1011.06" width="18.06" height="25.46"/><rect class="cls-2" x="1152.41" y="1011.06" width="18.06" height="25.46"/><rect class="cls-2" x="1186.19" y="1011.06" width="18.06" height="25.46"/><rect class="cls-2" x="1219.21" y="1011.06" width="18.06" height="25.46"/><rect class="cls-2" x="1250.51" y="1011.06" width="18.06" height="25.46"/><rect class="cls-2" x="1282.42" y="1011.06" width="18.06" height="25.46"/><rect class="cls-2" x="1315.67" y="1011.06" width="18.06" height="25.46"/><rect class="cls-2" x="1349.44" y="1011.06" width="18.06" height="25.46"/><rect class="cls-2" x="1382.46" y="1011.06" width="18.06" height="25.46"/><rect class="cls-2" x="1413.77" y="1011.06" width="18.06" height="25.46"/><rect class="cls-2" x="1445.68" y="1011.06" width="18.06" height="25.46"/><rect class="cls-2" x="1477.95" y="1011.06" width="18.06" height="25.46"/><rect class="cls-2" x="1511.72" y="1011.06" width="18.06" height="25.46"/><rect class="cls-2" x="1544.74" y="1011.06" width="18.06" height="25.46"/><rect class="cls-2" x="1576.05" y="1011.06" width="18.06" height="25.46"/><rect class="cls-2" x="1607.95" y="1011.06" width="18.06" height="25.46"/></g><rect class="cls-2" x="863.5" y="1090.82" width="418.61" height="225.83"/><rect class="cls-2" x="546.07" y="1203.74" width="418.61" height="112.92"/><rect class="cls-2" x="1315.67" y="1126.01" width="418.61" height="190.64"/><rect class="cls-3" x="891.46" y="1117.27" width="77.99" height="41.83"/><rect class="cls-3" x="991.58" y="1117.27" width="77.99" height="41.83"/><rect class="cls-3" x="1089.79" y="1117.27" width="77.99" height="41.83"/><rect class="cls-3" x="1186.11" y="1117.27" width="77.99" height="41.83"/><rect class="cls-6" x="1277.76" y="1090.82" width="40.18" height="227.78"/><rect class="cls-6" x="1776.18" y="1046.77" width="40.18" height="271.83"/><rect class="cls-6" x="1734.28" y="1126.01" width="43.13" height="188.81"/><path class="cls-4" d="M1702,1137.24c-1.11,3-3.82,4.75-6,3.92s-3.12-3.93-2-6.92,9.29-12.62,9.29-12.62S1703.07,1134.24,1702,1137.24Z"/><path class="cls-4" d="M1680,1063.47c-1.12,3-3.83,4.74-6,3.92s-3.13-3.93-2-6.93,9.29-12.61,9.29-12.61S1681.12,1060.47,1680,1063.47Z"/><path class="cls-4" d="M1595.88,1174.71c-1.12,3-3.82,4.75-6.05,3.92s-3.12-3.93-2-6.92,9.29-12.62,9.29-12.62S1597,1171.71,1595.88,1174.71Z"/><path class="cls-7" d="M1665.34,1296.55s-7.75,16.73,7.35,18,24.07-4.89,27.74-12.23c0,0-18.77,7.75-15.91-1.64s10.2-24.48,10.2-24.48-15.91,28.58-23.83,27.2C1667.35,1302.74,1665.34,1296.55,1665.34,1296.55Z"/><rect class="cls-4" x="670.23" y="687.85" width="2.18" height="17.68"/><rect class="cls-4" x="748.4" y="687.85" width="2.18" height="17.68"/><rect class="cls-3" x="1547.02" y="1046.11" width="230.4" height="268.71"/><rect class="cls-3" x="1757.71" y="992.29" width="4.26" height="54.48"/><rect class="cls-3" x="1547.02" y="1121.52" width="287.43" height="193.3"/><rect class="cls-2" x="1547.02" y="1096.27" width="287.43" height="62.83"/><rect class="cls-2" x="1566.59" y="1177.71" width="14.76" height="20.81"/><rect class="cls-2" x="1594.2" y="1177.71" width="14.76" height="20.81"/><rect class="cls-2" x="1621.18" y="1177.71" width="14.76" height="20.81"/><rect class="cls-2" x="1646.77" y="1177.71" width="14.76" height="20.81"/><rect class="cls-2" x="1672.85" y="1177.71" width="14.76" height="20.81"/><rect class="cls-2" x="1699.23" y="1177.71" width="14.76" height="20.81"/><rect class="cls-2" x="1726.83" y="1177.71" width="14.76" height="20.81"/><rect class="cls-2" x="1753.82" y="1177.71" width="14.76" height="20.81"/><rect class="cls-2" x="1779.4" y="1177.71" width="14.76" height="20.81"/><rect class="cls-2" x="1805.48" y="1177.71" width="14.76" height="20.81"/><rect class="cls-2" x="1566.59" y="1214.43" width="14.76" height="20.81"/><rect class="cls-2" x="1594.2" y="1214.43" width="14.76" height="20.81"/><rect class="cls-2" x="1621.18" y="1214.43" width="14.76" height="20.81"/><rect class="cls-2" x="1646.77" y="1214.43" width="14.76" height="20.81"/><rect class="cls-2" x="1672.85" y="1214.43" width="14.76" height="20.81"/><rect class="cls-2" x="1699.23" y="1214.43" width="14.76" height="20.81"/><rect class="cls-2" x="1726.83" y="1214.43" width="14.76" height="20.81"/><rect class="cls-2" x="1753.82" y="1214.43" width="14.76" height="20.81"/><rect class="cls-2" x="1779.4" y="1214.43" width="14.76" height="20.81"/><rect class="cls-2" x="1805.48" y="1214.43" width="14.76" height="20.81"/><rect class="cls-2" x="1566.59" y="1250.58" width="14.76" height="20.81"/><rect class="cls-2" x="1594.2" y="1250.58" width="14.76" height="20.81"/><rect class="cls-2" x="1621.18" y="1250.58" width="14.76" height="20.81"/><rect class="cls-2" x="1646.77" y="1250.58" width="14.76" height="20.81"/><rect class="cls-2" x="1672.85" y="1250.58" width="14.76" height="20.81"/><rect class="cls-2" x="1699.23" y="1250.58" width="14.76" height="20.81"/><rect class="cls-2" x="1726.83" y="1250.58" width="14.76" height="20.81"/><rect class="cls-2" x="1753.82" y="1250.58" width="14.76" height="20.81"/><rect class="cls-2" x="1779.4" y="1250.58" width="14.76" height="20.81"/><rect class="cls-2" x="1805.48" y="1250.58" width="14.76" height="20.81"/><rect class="cls-6" x="1568.95" y="1113.92" width="12.4" height="21.46"/><rect class="cls-6" x="1692.1" y="1113.92" width="12.4" height="21.46"/><rect class="cls-6" x="1790.06" y="1113.92" width="12.4" height="21.46"/><rect class="cls-3" x="337.89" y="1121.52" width="287.43" height="193.3"/><rect class="cls-2" x="337.89" y="1096.27" width="287.43" height="62.83"/><rect class="cls-2" x="357.46" y="1177.71" width="14.76" height="20.81"/><rect class="cls-2" x="385.06" y="1177.71" width="14.76" height="20.81"/><rect class="cls-2" x="412.05" y="1177.71" width="14.76" height="20.81"/><rect class="cls-2" x="437.64" y="1177.71" width="14.76" height="20.81"/><rect class="cls-2" x="463.72" y="1177.71" width="14.76" height="20.81"/><rect class="cls-2" x="490.09" y="1177.71" width="14.76" height="20.81"/><rect class="cls-2" x="517.7" y="1177.71" width="14.76" height="20.81"/><rect class="cls-2" x="544.68" y="1177.71" width="14.76" height="20.81"/><rect class="cls-2" x="570.27" y="1177.71" width="14.76" height="20.81"/><rect class="cls-2" x="596.35" y="1177.71" width="14.76" height="20.81"/><rect class="cls-2" x="357.46" y="1214.43" width="14.76" height="20.81"/><rect class="cls-2" x="385.06" y="1214.43" width="14.76" height="20.81"/><rect class="cls-2" x="412.05" y="1214.43" width="14.76" height="20.81"/><rect class="cls-2" x="437.64" y="1214.43" width="14.76" height="20.81"/><rect class="cls-2" x="463.72" y="1214.43" width="14.76" height="20.81"/><rect class="cls-2" x="490.09" y="1214.43" width="14.76" height="20.81"/><rect class="cls-2" x="517.7" y="1214.43" width="14.76" height="20.81"/><rect class="cls-2" x="544.68" y="1214.43" width="14.76" height="20.81"/><rect class="cls-2" x="570.27" y="1214.43" width="14.76" height="20.81"/><rect class="cls-2" x="596.35" y="1214.43" width="14.76" height="20.81"/><rect class="cls-2" x="357.46" y="1250.58" width="14.76" height="20.81"/><rect class="cls-2" x="385.06" y="1250.58" width="14.76" height="20.81"/><rect class="cls-2" x="412.05" y="1250.58" width="14.76" height="20.81"/><rect class="cls-2" x="437.64" y="1250.58" width="14.76" height="20.81"/><rect class="cls-2" x="463.72" y="1250.58" width="14.76" height="20.81"/><rect class="cls-2" x="490.09" y="1250.58" width="14.76" height="20.81"/><rect class="cls-2" x="517.7" y="1250.58" width="14.76" height="20.81"/><rect class="cls-2" x="544.68" y="1250.58" width="14.76" height="20.81"/><rect class="cls-2" x="570.27" y="1250.58" width="14.76" height="20.81"/><rect class="cls-2" x="596.35" y="1250.58" width="14.76" height="20.81"/><rect class="cls-6" x="359.82" y="1113.92" width="12.4" height="21.46"/><rect class="cls-6" x="482.97" y="1113.92" width="12.4" height="21.46"/><rect class="cls-6" x="580.93" y="1113.92" width="12.4" height="21.46"/><polygon class="cls-3" points="319.83 1121.49 319.83 1314.78 67.22 1314.78 32.35 1277.04 32.35 1121.49 319.83 1121.49"/><rect class="cls-2" x="32.41" y="1096.27" width="287.43" height="62.83"/><rect class="cls-2" x="51.98" y="1177.71" width="14.76" height="20.81"/><rect class="cls-2" x="79.59" y="1177.71" width="14.76" height="20.81"/><rect class="cls-2" x="106.57" y="1177.71" width="14.76" height="20.81"/><rect class="cls-2" x="132.16" y="1177.71" width="14.76" height="20.81"/><rect class="cls-2" x="158.24" y="1177.71" width="14.76" height="20.81"/><rect class="cls-2" x="184.62" y="1177.71" width="14.76" height="20.81"/><rect class="cls-2" x="212.22" y="1177.71" width="14.76" height="20.81"/><rect class="cls-2" x="239.21" y="1177.71" width="14.76" height="20.81"/><rect class="cls-2" x="264.79" y="1177.71" width="14.76" height="20.81"/><rect class="cls-2" x="290.87" y="1177.71" width="14.76" height="20.81"/><rect class="cls-2" x="51.98" y="1214.43" width="14.76" height="20.81"/><rect class="cls-2" x="79.59" y="1214.43" width="14.76" height="20.81"/><rect class="cls-2" x="106.57" y="1214.43" width="14.76" height="20.81"/><rect class="cls-2" x="132.16" y="1214.43" width="14.76" height="20.81"/><rect class="cls-2" x="158.24" y="1214.43" width="14.76" height="20.81"/><rect class="cls-2" x="184.62" y="1214.43" width="14.76" height="20.81"/><rect class="cls-2" x="212.22" y="1214.43" width="14.76" height="20.81"/><rect class="cls-2" x="239.21" y="1214.43" width="14.76" height="20.81"/><rect class="cls-2" x="264.79" y="1214.43" width="14.76" height="20.81"/><rect class="cls-2" x="290.87" y="1214.43" width="14.76" height="20.81"/><rect class="cls-2" x="51.98" y="1250.58" width="14.76" height="20.81"/><rect class="cls-2" x="79.59" y="1250.58" width="14.76" height="20.81"/><rect class="cls-2" x="106.57" y="1250.58" width="14.76" height="20.81"/><rect class="cls-2" x="132.16" y="1250.58" width="14.76" height="20.81"/><rect class="cls-2" x="158.24" y="1250.58" width="14.76" height="20.81"/><rect class="cls-2" x="184.62" y="1250.58" width="14.76" height="20.81"/><rect class="cls-2" x="212.22" y="1250.58" width="14.76" height="20.81"/><rect class="cls-2" x="239.21" y="1250.58" width="14.76" height="20.81"/><rect class="cls-2" x="264.79" y="1250.58" width="14.76" height="20.81"/><rect class="cls-2" x="290.87" y="1250.58" width="14.76" height="20.81"/><rect class="cls-6" x="54.34" y="1113.92" width="12.4" height="21.46"/><rect class="cls-6" x="177.49" y="1113.92" width="12.4" height="21.46"/><rect class="cls-6" x="275.45" y="1113.92" width="12.4" height="21.46"/><path class="cls-3" d="M13.66,1121.49v120.92c-9.23-22.53-13.66-47-13.66-72.5,0-1.2,0-2.52.12-3.84,0-2.27.12-4.67.12-7L.6,1153c.6-7.43,1.44-14.86,2.64-22.28,0-.25.12-.48.12-.72.23-1.2.47-2.53.59-3.84.24-1.56.6-3.11,1-4.68Z"/><path class="cls-2" d="M13.66,1096.21v62.91H.24L.6,1153c.6-7.43,1.44-14.86,2.64-22.28,0-.25.12-.48.12-.72.23-1.2.47-2.53.59-3.84.24-1.56.6-3.11,1-4.68,1.08-5.51,2.4-11,3.84-16.65.24-1.32.6-2.64,1-3.95.48-1.56.83-3.12,1.43-4.68Z"/><path class="cls-8" d="M2691.39,1073.77q-1.74,10.24-3.71,20.21c-.3,1.51-.59,3-.9,4.52l-.16.84c-.83,4-1.68,8.06-2.56,12q-2.37,10.74-4.92,21.05c-.31,1.27-.63,2.53-.94,3.78-4.55,18-9.48,35-14.55,50.77q-1.26,4-2.54,7.82-3.45,10.41-6.9,20.09-2.48,6.88-4.93,13.38c-8.75,23.27-17.17,42.6-24,57.16-6.35,13.6-11.82,25-14.58,30.69H1309.47V1044.82c99.19,7.63,230.94-76,327-24.64,108.77,58.17,392.31,203.77,573.18,98.51C2366.31,1027.49,2588.76,1031.48,2691.39,1073.77Z"/><path class="cls-9" d="M2473.51,1312.93h-92.36c-5-4.19,3.42-13.73,12.17-14.37,3.8-.29,8.61.51,14.1,1.67,1.27-16.88,8.53-92.77,35.88-89.72,30.76,3.41,0,33.42-8.69,51.18-6.45,13.16-13.24,32-16.34,40.94,2.49.54,5.08,1.07,7.72,1.55,4.07-12.51,19.24-54.62,38.53-52.16,22.65,2.87,13.55,19.75-2.5,29.77-11.78,7.37-26.24,17.84-33.12,22.9a98.56,98.56,0,0,0,18.07,1.45C2462.79,1305.76,2470.51,1310.43,2473.51,1312.93Z"/><path class="cls-9" d="M182.62,1309c-4.34-6.81-17.39-24.49-34.78-22.15-18.94,2.55,20.92,15,33.13,22.21a20.41,20.41,0,0,1-6.75-.79c-8.16-2.91-22.14,2.67-26.61,4.62H225.3a12.34,12.34,0,0,0-5.56-7.1c-1.27-.78-3.84-.89-7.15-.64,4.62-5.44,7.83-22.84-5-18.36-9.39,3.27-9.37,13.9-8.45,20.19-2,.31-4,.63-6,.91-3.87-19.71-17.55-77.47-45.28-79-28.1-1.56,23.84,59.92,41.13,79.57C186.73,1308.75,184.59,1309,182.62,1309Z"/><path class="cls-10" d="M534.82,723.78a151.66,151.66,0,0,0-151.7,151.7c0,83.77,151.7,270,151.7,270s68.91-84.6,113.72-165.36c21.81-39.07,38-77.3,38-104.62A151.73,151.73,0,0,0,534.82,723.78Zm0,221A71.37,71.37,0,1,1,550.28,943,65.62,65.62,0,0,1,534.82,944.74Z"/><path class="cls-10" d="M2457.82,946.09a67.32,67.32,0,0,0-67.33,67.33c0,37.18,67.33,119.85,67.33,119.85s67.33-82.67,67.33-119.85A67.33,67.33,0,0,0,2457.82,946.09Zm0,98.11a31.47,31.47,0,1,1,31.47-31.47A31.47,31.47,0,0,1,2457.82,1044.2Z"/><path class="cls-11" d="M227,1022.57a36.87,36.87,0,0,0-36.87,36.87c0,20.37,36.87,65.64,36.87,65.64s36.87-45.27,36.87-65.64A36.87,36.87,0,0,0,227,1022.57Zm0,53.73a17.24,17.24,0,1,1,17.24-17.23A17.22,17.22,0,0,1,227,1076.3Z"/><path class="cls-9" d="M602,1312.93s26.43-78.87,102.14-94,131.76,44.1,199.21,21,173.78-145.4,300.33-56,118.25,114.84,198.07,94,98.07,35.13,98.07,35.13Z"/><path class="cls-9" d="M679.71,1238.73s-55.22-57.9-83.43-42.38S679.71,1238.73,679.71,1238.73Z"/><path class="cls-9" d="M665.62,1253.37s-50.9-16.59-63.64-8.3S665.62,1253.37,665.62,1253.37Z"/><path class="cls-9" d="M827.56,1248.06s35-78.48,47.12-64.2S827.56,1248.06,827.56,1248.06Z"/><path class="cls-9" d="M819,1242.75s14.28-57.46-7.13-53.89S819,1242.75,819,1242.75Z"/><path class="cls-12" d="M2439.43,915.3c-.08-.23-1.75-5.65-5.36-15.5a2.67,2.67,0,0,0-5,1.84c3.55,9.71,5.24,15.18,5.26,15.23a2.67,2.67,0,0,0,2.56,1.9,3.08,3.08,0,0,0,.78-.12A2.7,2.7,0,0,0,2439.43,915.3Zm-11.13-30.65c-1.92-4.87-4-9.92-6.09-15a2.68,2.68,0,1,0-4.94,2.07c2.11,5,4.15,10,6.05,14.88a2.7,2.7,0,0,0,2.5,1.7,2.58,2.58,0,0,0,1-.19A2.67,2.67,0,0,0,2428.3,884.65ZM333.77,873.81c-4.79-2.35-9.71-4.65-14.63-6.85a2.67,2.67,0,1,0-2.17,4.89c4.85,2.17,9.71,4.44,14.43,6.77a2.76,2.76,0,0,0,1.18.28,2.68,2.68,0,0,0,1.19-5.09Zm-29.49-13.14c-5-2-10-3.92-15.09-5.75a2.68,2.68,0,0,0-1.81,5.05c5,1.8,10,3.7,14.91,5.67a2.65,2.65,0,0,0,1,.2,2.68,2.68,0,0,0,1-5.17Zm2111.53-5.85c-2.14-4.84-4.37-9.79-6.66-14.72a2.68,2.68,0,0,0-4.85,2.26c2.26,4.89,4.49,9.81,6.62,14.62a2.65,2.65,0,0,0,2.44,1.6,2.72,2.72,0,0,0,1.08-.23A2.67,2.67,0,0,0,2415.81,854.82Zm-2141.89-5.1c-5.05-1.64-10.25-3.21-15.43-4.69a2.67,2.67,0,0,0-1.48,5.14c5.13,1.47,10.27,3,15.27,4.65a2.93,2.93,0,0,0,.83.13,2.68,2.68,0,0,0,.81-5.23Zm-31-8.88c-5.16-1.3-10.45-2.55-15.7-3.7a2.67,2.67,0,1,0-1.14,5.22c5.19,1.15,10.41,2.38,15.53,3.67a3,3,0,0,0,.66.08,2.68,2.68,0,0,0,.65-5.27Zm-31.49-6.94c-5.23-1-10.57-1.92-15.88-2.78a2.68,2.68,0,1,0-.85,5.29c5.26.85,10.56,1.77,15.73,2.75a2.84,2.84,0,0,0,.5.06,2.68,2.68,0,0,0,.5-5.32Zm-31.83-5.12c-5.24-.71-10.62-1.36-16-1.94a2.68,2.68,0,0,0-.57,5.32c5.32.58,10.66,1.22,15.87,1.92a2,2,0,0,0,.35,0,2.67,2.67,0,0,0,.35-5.32Zm2222.66-3.26c-2.33-4.8-4.73-9.66-7.17-14.46a2.67,2.67,0,0,0-4.77,2.41c2.41,4.78,4.81,9.62,7.12,14.38a2.66,2.66,0,0,0,2.41,1.51,2.76,2.76,0,0,0,1.17-.26A2.7,2.7,0,0,0,2402.25,825.52Zm-14.55-28.79c-2.49-4.73-5.06-9.5-7.63-14.21a2.68,2.68,0,0,0-4.7,2.57c2.56,4.68,5.12,9.43,7.58,14.13a2.69,2.69,0,0,0,2.38,1.43,2.73,2.73,0,0,0,1.24-.3A2.7,2.7,0,0,0,2387.7,796.73Zm-15.48-28.29c-2.64-4.65-5.35-9.35-8.07-14a2.68,2.68,0,0,0-4.62,2.72c2.71,4.6,5.41,9.26,8,13.89a2.69,2.69,0,0,0,2.34,1.35,2.73,2.73,0,0,0,1.32-.34A2.68,2.68,0,0,0,2372.22,768.44Zm-1650-27.14a2.67,2.67,0,0,0-3.73.64c-3.08,4.36-6.19,8.82-9.21,13.22a2.68,2.68,0,0,0,4.41,3c3-4.39,6.09-8.81,9.17-13.15A2.69,2.69,0,0,0,722.24,741.3Zm1633.61-.64c-2.81-4.6-5.66-9.2-8.51-13.69a2.67,2.67,0,1,0-4.52,2.86c2.83,4.47,5.67,9,8.47,13.61a2.64,2.64,0,0,0,3.67.89A2.67,2.67,0,0,0,2355.85,740.66ZM741.23,715.38a2.69,2.69,0,0,0-3.75.53c-3.22,4.3-6.44,8.65-9.58,13a2.68,2.68,0,0,0,4.33,3.16c3.11-4.29,6.32-8.62,9.53-12.88A2.7,2.7,0,0,0,741.23,715.38Zm1597.38-2c-2.94-4.49-6-9-9-13.41a2.68,2.68,0,1,0-4.43,3c3,4.39,6,8.88,8.89,13.34a2.7,2.7,0,0,0,2.25,1.21,2.74,2.74,0,0,0,1.47-.44A2.7,2.7,0,0,0,2338.61,713.42ZM761,690a2.67,2.67,0,0,0-3.76.42c-3.33,4.16-6.68,8.43-10,12.66a2.68,2.68,0,0,0,4.23,3.28c3.27-4.22,6.6-8.46,9.9-12.6A2.67,2.67,0,0,0,761,690Zm1559.52-3.28c-3.07-4.36-6.23-8.78-9.37-13.09a2.68,2.68,0,1,0-4.33,3.15c3.12,4.29,6.26,8.67,9.32,13a2.68,2.68,0,0,0,2.2,1.13,2.61,2.61,0,0,0,1.53-.48A2.68,2.68,0,0,0,2320.49,686.75Zm-1539-21.48a2.7,2.7,0,0,0-3.78.31c-3.44,4.06-6.92,8.22-10.32,12.36a2.67,2.67,0,1,0,4.13,3.4c3.39-4.12,6.84-8.26,10.27-12.3A2.67,2.67,0,0,0,781.45,665.27Zm1520.08-4.57c-3.23-4.27-6.52-8.58-9.81-12.78a2.67,2.67,0,1,0-4.22,3.28c3.27,4.19,6.54,8.47,9.76,12.72a2.66,2.66,0,0,0,2.13,1.08,2.69,2.69,0,0,0,2.14-4.3ZM802.67,641.15a2.68,2.68,0,0,0-3.78.19c-3.58,4-7.18,8-10.7,12a2.68,2.68,0,0,0,.25,3.78,2.68,2.68,0,0,0,3.77-.25c3.52-4,7.09-8,10.66-12A2.68,2.68,0,0,0,802.67,641.15Zm1479-5.86c-3.36-4.17-6.8-8.36-10.23-12.45a2.67,2.67,0,1,0-4.1,3.42c3.39,4.08,6.82,8.25,10.16,12.39a2.69,2.69,0,0,0,2.09,1,2.62,2.62,0,0,0,1.68-.6A2.67,2.67,0,0,0,2281.71,635.29ZM824.63,617.71a2.66,2.66,0,0,0-3.78.07c-3.73,3.87-7.46,7.81-11.08,11.7a2.68,2.68,0,0,0,2,4.5,2.64,2.64,0,0,0,2-.85c3.61-3.87,7.32-7.79,11-11.64A2.66,2.66,0,0,0,824.63,617.71Zm1436.42-7.15c-3.51-4.06-7.09-8.13-10.64-12.1a2.68,2.68,0,0,0-4,3.57c3.55,4,7.1,8,10.59,12a2.68,2.68,0,1,0,4.05-3.5ZM847.32,595a2.66,2.66,0,0,0-3.78,0c-3.8,3.71-7.66,7.53-11.44,11.34a2.68,2.68,0,0,0,3.8,3.77c3.76-3.79,7.59-7.59,11.37-11.29A2.66,2.66,0,0,0,847.32,595Zm1392.24-8.41c-3.66-3.94-7.38-7.88-11.06-11.72a2.68,2.68,0,0,0-3.87,3.71c3.67,3.81,7.36,7.73,11,11.65a2.68,2.68,0,0,0,3.93-3.64ZM870.74,573a2.7,2.7,0,0,0-3.8-.17c-3.93,3.6-7.9,7.28-11.79,11a2.68,2.68,0,1,0,3.68,3.89c3.87-3.65,7.81-7.32,11.73-10.9A2.67,2.67,0,0,0,870.74,573Zm1346.49-9.66c-3.78-3.8-7.63-7.6-11.46-11.32a2.68,2.68,0,0,0-3.73,3.85c3.81,3.69,7.64,7.47,11.4,11.25a2.65,2.65,0,0,0,1.9.78,2.61,2.61,0,0,0,1.88-.78A2.67,2.67,0,0,0,2217.23,563.31ZM894.85,551.75a2.67,2.67,0,0,0-3.78-.29c-4.05,3.46-8.13,7-12.15,10.57a2.67,2.67,0,1,0,3.55,4c4-3.53,8-7.07,12.08-10.51A2.69,2.69,0,0,0,894.85,551.75Zm24.8-20.41a2.67,2.67,0,0,0-3.76-.42c-4.18,3.33-8.37,6.76-12.49,10.16a2.67,2.67,0,1,0,3.41,4.12c4.09-3.38,8.28-6.79,12.42-10.09A2.69,2.69,0,0,0,919.65,531.34Zm1274.44,9.55c-3.9-3.66-7.9-7.33-11.86-10.9a2.68,2.68,0,0,0-3.59,4c3.94,3.55,7.92,7.19,11.8,10.83a2.67,2.67,0,0,0,1.83.71,2.62,2.62,0,0,0,1.95-.84A2.66,2.66,0,0,0,2194.09,540.89Zm-1249-29.12a2.68,2.68,0,0,0-3.74-.53c-4.27,3.17-8.58,6.44-12.83,9.73a2.68,2.68,0,0,0,1.64,4.8,2.61,2.61,0,0,0,1.63-.57c4.22-3.25,8.52-6.51,12.76-9.68A2.67,2.67,0,0,0,945.12,511.77Zm1225,7.54c-4-3.5-8.16-7-12.26-10.45a2.68,2.68,0,1,0-3.44,4.11c4.08,3.42,8.18,6.91,12.19,10.39a2.64,2.64,0,0,0,1.75.65,2.68,2.68,0,0,0,1.76-4.7ZM971.25,493.09a2.68,2.68,0,0,0-3.72-.67c-4.39,3-8.82,6.17-13.16,9.3a2.68,2.68,0,0,0,3.12,4.35c4.33-3.12,8.73-6.23,13.09-9.26A2.67,2.67,0,0,0,971.25,493.09Zm1174.19,5.56c-4.19-3.38-8.44-6.73-12.65-10a2.68,2.68,0,1,0-3.28,4.23c4.18,3.23,8.41,6.57,12.57,9.92a2.68,2.68,0,0,0,3.36-4.17ZM998,475.31a2.68,2.68,0,0,0-3.7-.8c-4.49,2.9-9,5.87-13.47,8.84a2.69,2.69,0,0,0,1.5,4.91,2.61,2.61,0,0,0,1.48-.46c4.42-3,8.92-5.91,13.39-8.78A2.69,2.69,0,0,0,998,475.31Zm1122,3.61c-4.3-3.2-8.68-6.39-13-9.49a2.68,2.68,0,1,0-3.12,4.36c4.31,3.08,8.67,6.24,12.94,9.44a2.7,2.7,0,0,0,1.6.52,2.68,2.68,0,0,0,1.6-4.83ZM1025.33,458.46a2.68,2.68,0,0,0-3.68-.93c-4.57,2.74-9.2,5.55-13.74,8.37a2.68,2.68,0,0,0,1.41,5,2.59,2.59,0,0,0,1.4-.41c4.53-2.8,9.13-5.6,13.69-8.32A2.68,2.68,0,0,0,1025.33,458.46Zm1068.42,1.73c-4.42-3-8.92-6.05-13.38-9a2.68,2.68,0,1,0-2.94,4.47c4.42,2.92,8.9,5.92,13.29,8.92a2.56,2.56,0,0,0,1.51.48,2.66,2.66,0,0,0,2.2-1.16A2.69,2.69,0,0,0,2093.75,460.19ZM1053.23,442.56a2.67,2.67,0,0,0-3.64-1.05c-4.69,2.58-9.41,5.23-14,7.89a2.68,2.68,0,0,0,1.34,5,2.78,2.78,0,0,0,1.33-.35c4.6-2.65,9.3-5.29,14-7.85A2.68,2.68,0,0,0,1053.23,442.56Zm1013.6-.07c-4.5-2.84-9.11-5.68-13.72-8.46a2.68,2.68,0,0,0-2.76,4.59c4.57,2.76,9.15,5.59,13.62,8.4a2.68,2.68,0,0,0,2.86-4.53Zm-985.17-14.87a2.7,2.7,0,0,0-3.61-1.18c-4.75,2.42-9.56,4.92-14.29,7.41a2.68,2.68,0,0,0,1.25,5,2.52,2.52,0,0,0,1.25-.31c4.71-2.48,9.49-4.95,14.22-7.36A2.68,2.68,0,0,0,1081.66,427.62Zm957.57-1.77c-4.63-2.69-9.36-5.34-14-7.91a2.68,2.68,0,1,0-2.59,4.69c4.64,2.55,9.33,5.19,14,7.86a2.73,2.73,0,0,0,1.33.35,2.67,2.67,0,0,0,1.33-5Zm-928.64-12.18a2.7,2.7,0,0,0-3.57-1.3c-4.83,2.25-9.72,4.57-14.54,6.92a2.68,2.68,0,0,0,1.18,5.08,2.69,2.69,0,0,0,1.16-.27c4.79-2.33,9.66-4.64,14.46-6.87A2.69,2.69,0,0,0,1110.59,413.67ZM2011,410.3c-4.75-2.49-9.56-5-14.33-7.35a2.67,2.67,0,1,0-2.4,4.78c4.73,2.37,9.53,4.83,14.24,7.31a2.66,2.66,0,0,0,3.61-1.13A2.66,2.66,0,0,0,2011,410.3ZM1140,400.71a2.67,2.67,0,0,0-3.51-1.41c-4.91,2.07-9.88,4.24-14.77,6.41a2.67,2.67,0,0,0,1.09,5.12,2.72,2.72,0,0,0,1.08-.23c4.86-2.16,9.81-4.31,14.69-6.38A2.68,2.68,0,0,0,1140,400.71Zm842.25-4.84c-4.82-2.29-9.73-4.58-14.6-6.78a2.67,2.67,0,1,0-2.21,4.87c4.84,2.2,9.72,4.46,14.51,6.75a2.83,2.83,0,0,0,1.16.26,2.68,2.68,0,0,0,1.14-5.1Zm-812.45-7.12a2.68,2.68,0,0,0-3.46-1.54c-5,1.92-10,3.92-15,5.92a2.68,2.68,0,0,0,1,5.16,2.7,2.7,0,0,0,1-.2c4.93-2,9.94-4,14.9-5.88A2.68,2.68,0,0,0,1169.76,388.75Zm783.11-6.16c-4.91-2.11-9.91-4.2-14.86-6.21a2.68,2.68,0,1,0-2,5c4.91,2,9.88,4.08,14.76,6.17a2.62,2.62,0,0,0,1,.21,2.67,2.67,0,0,0,1.06-5.13Zm-752.93-4.81a2.68,2.68,0,0,0-3.41-1.65c-5,1.76-10.14,3.58-15.16,5.41a2.68,2.68,0,1,0,1.84,5c5-1.83,10.06-3.64,15.09-5.38A2.68,2.68,0,0,0,1199.94,377.78Zm30.52-10a2.68,2.68,0,0,0-3.35-1.75c-5.13,1.59-10.29,3.25-15.33,4.91a2.68,2.68,0,0,0,.83,5.23,2.8,2.8,0,0,0,.85-.14c5-1.65,10.15-3.3,15.25-4.88A2.7,2.7,0,0,0,1230.46,367.8ZM1923,370.46c-5-1.91-10-3.8-15.09-5.63a2.68,2.68,0,0,0-1.83,5c5,1.82,10.07,3.7,15,5.6a2.65,2.65,0,0,0,1,.17,2.67,2.67,0,0,0,1-5.17Zm-661.74-11.64A2.67,2.67,0,0,0,1258,357c-5.16,1.43-10.36,2.92-15.47,4.42a2.68,2.68,0,0,0,.75,5.25,2.91,2.91,0,0,0,.76-.11c5.08-1.5,10.26-3,15.4-4.4A2.68,2.68,0,0,0,1261.29,358.82Zm631.46.67c-5.06-1.72-10.21-3.41-15.31-5a2.68,2.68,0,0,0-1.62,5.1c5.06,1.61,10.18,3.31,15.2,5a2.55,2.55,0,0,0,.86.15,2.68,2.68,0,0,0,.87-5.22Zm-600.36-8.67a2.69,2.69,0,0,0-3.24-2c-5.2,1.26-10.45,2.59-15.61,3.93a2.68,2.68,0,0,0,.68,5.27,2.21,2.21,0,0,0,.67-.09c5.13-1.34,10.36-2.64,15.53-3.91A2.69,2.69,0,0,0,1292.39,350.82Zm569.67-1.12c-5.11-1.54-10.31-3-15.48-4.47a2.68,2.68,0,0,0-1.43,5.16c5.13,1.43,10.3,2.91,15.38,4.44a2.87,2.87,0,0,0,.77.11,2.68,2.68,0,0,0,.76-5.24Zm-538.35-5.94a2.68,2.68,0,0,0-3.17-2.06l-7.37,1.59c-2.79.61-5.58,1.23-8.35,1.87a2.68,2.68,0,0,0,.59,5.29,3.26,3.26,0,0,0,.6-.07c2.76-.63,5.52-1.25,8.31-1.85l7.33-1.6A2.66,2.66,0,0,0,1323.71,343.76ZM1831,341.07c-5.15-1.34-10.41-2.65-15.63-3.89a2.67,2.67,0,1,0-1.25,5.2c5.18,1.24,10.41,2.54,15.54,3.87a3.07,3.07,0,0,0,.67.08,2.67,2.67,0,0,0,.67-5.26Zm-475.83-3.65a2.69,2.69,0,0,0-3.14-2.12c-5.21,1-10.52,2.05-15.78,3.12a2.68,2.68,0,0,0,.52,5.3,3.19,3.19,0,0,0,.54-.05c5.25-1.06,10.54-2.11,15.73-3.11A2.68,2.68,0,0,0,1355.21,337.42Zm444.51-3.84c-5.22-1.15-10.52-2.26-15.77-3.31a2.67,2.67,0,0,0-3.15,2.09,2.69,2.69,0,0,0,2.1,3.16c5.21,1,10.49,2.15,15.67,3.29a2.76,2.76,0,0,0,.57.06,2.68,2.68,0,0,0,.58-5.29Zm-412.89-1.79a2.67,2.67,0,0,0-3.08-2.19c-5.26.89-10.59,1.82-15.86,2.76a2.68,2.68,0,0,0,.47,5.31,2.59,2.59,0,0,0,.48,0c5.25-.94,10.56-1.88,15.8-2.75A2.68,2.68,0,0,0,1386.83,331.79Zm381.32-4.56c-5.26-1-10.59-1.88-15.87-2.75a2.68,2.68,0,0,0-.87,5.29c5.25.86,10.55,1.78,15.77,2.73a2.63,2.63,0,0,0,.49,0,2.68,2.68,0,0,0,.48-5.31Zm-349.58-.36a2.66,2.66,0,0,0-3-2.26c-5.28.76-10.63,1.57-15.91,2.4a2.68,2.68,0,0,0,.41,5.32,2.06,2.06,0,0,0,.42,0c5.26-.82,10.59-1.62,15.85-2.38A2.68,2.68,0,0,0,1418.57,326.87Zm31.86-4.16a2.68,2.68,0,0,0-3-2.34c-5.27.64-10.64,1.31-16,2a2.68,2.68,0,0,0,.35,5.33l.35,0c5.31-.71,10.67-1.38,15.91-2A2.68,2.68,0,0,0,1450.43,322.71Zm286-.71c-5.27-.77-10.64-1.5-16-2.19a2.68,2.68,0,1,0-.68,5.31c5.29.68,10.62,1.41,15.86,2.19a2.34,2.34,0,0,0,.38,0,2.68,2.68,0,0,0,.4-5.34Zm-256.92-5.07c-5.31.5-10.7,1.05-16,1.62a2.68,2.68,0,0,0,.29,5.34l.29,0c5.3-.57,10.66-1.12,15.94-1.62a2.67,2.67,0,1,0-.5-5.32Zm225,.94c-5.32-.6-10.7-1.16-16-1.66a2.67,2.67,0,1,0-.51,5.32c5.28.52,10.64,1.07,15.93,1.66l.3,0a2.68,2.68,0,0,0,.29-5.34Zm-192.9-3.56c-5.31.36-10.71.76-16,1.19a2.68,2.68,0,0,0,.21,5.35h.23c5.32-.44,10.69-.85,16-1.21a2.67,2.67,0,0,0,2.49-2.85A2.64,2.64,0,0,0,1511.54,314.31Zm160.86.5c-5.3-.43-10.7-.81-16.07-1.15a2.65,2.65,0,0,0-2.83,2.5A2.68,2.68,0,0,0,1656,319c5.33.33,10.71.71,16,1.13h.21a2.67,2.67,0,0,0,.22-5.34Zm-128.72-2.27c-5.3.21-10.71.48-16.07.77a2.68,2.68,0,0,0,.14,5.35h.15c5.34-.29,10.73-.54,16-.76a2.67,2.67,0,0,0,2.56-2.79A2.71,2.71,0,0,0,1543.68,312.54Zm96.58.23c-5.32-.25-10.73-.47-16.09-.64a2.68,2.68,0,1,0-.17,5.36c5.33.17,10.71.38,16,.63h.13a2.68,2.68,0,0,0,.13-5.35Zm-64.36-1.1h0c-5.31.07-10.73.17-16.09.32a2.68,2.68,0,0,0,.06,5.36h.08c5.34-.15,10.74-.26,16-.32a2.68,2.68,0,0,0,0-5.36Zm32.17.07c-5.33-.09-10.75-.14-16.09-.15h0a2.68,2.68,0,1,0,0,5.35c5.32,0,10.71.06,16,.15h0a2.68,2.68,0,0,0,0-5.35Z"/><polygon class="cls-11" points="1794.94 1015.52 1788.86 1010.56 1870.33 904.09 1899.73 902.86 1794.94 1015.52"/><polygon class="cls-11" points="1688.48 1015.52 1683.45 1010.56 1750.86 904.09 1775.19 902.86 1688.48 1015.52"/><ellipse class="cls-11" cx="1226.72" cy="738.01" rx="35.73" ry="36.59"/><path class="cls-11" d="M1644.23,1231.26H1280.94a7.23,7.23,0,0,1-7.18-7.23v-34.34a7.22,7.22,0,0,1,7.18-7.23h320.92a7.22,7.22,0,0,1,7.17,7.23Z"/><circle class="cls-13" cx="1756" cy="1204.36" r="108.57"/><circle class="cls-14" cx="1756" cy="1204.37" r="55.34"/><path class="cls-11" d="M1197.94,1051.11a160.74,160.74,0,0,0-207.51,129.23,21,21,0,0,0,20.74,24h.71a13.34,13.34,0,0,0,13.25-12.13c6.13-63.17,59.51-112.71,124.25-112.71a124.85,124.85,0,0,1,124.84,124.84h35.91C1310.13,1132.64,1262.92,1071.74,1197.94,1051.11Z"/><path class="cls-11" d="M1364.54,1182.46l-54.41,21.9c-37.67-73.25-76.14-109.2-109-126.93-59.19-31.91-100.4-4.88-86.52-30l101.54-214.25a93.28,93.28,0,0,1,84.34-38.42,30.34,30.34,0,0,1,25.87,39.79c-13.29,39.76-18.4,79.72-18.4,117.66C1307.92,1078.48,1364.54,1182.46,1364.54,1182.46Z"/><path class="cls-11" d="M1309.07,819.53l-41-15.66c-5.58,0-16.21,5-16.21-.54L1258,703.26a10.17,10.17,0,0,1,10.14-10.14h26.41c5.57,0,27.93,10.7,26.35,30.72l7,100.87C1327.89,830.29,1314.65,819.53,1309.07,819.53Z"/><rect class="cls-11" x="1719.75" y="869.23" width="301.63" height="38.58" rx="14.36"/><circle class="cls-13" cx="1149.39" cy="1204.36" r="108.57"/><path class="cls-15" d="M1204.73,1204.36a55.06,55.06,0,0,1-6.38,25.81c-.27.5-.54,1-.83,1.48a55.34,55.34,0,1,1-69.4-78.37c.2-.1.42-.18.63-.27a55.37,55.37,0,0,1,76,51.35Z"/><path class="cls-11" d="M1547,985.68s42.33,94.29-52.23,196.78h218.25l-29.61-224.38Z"/><path class="cls-11" d="M1974.86,1216.9a14.41,14.41,0,0,1-14.36,14.36H1612.21a14.41,14.41,0,0,1-14.37-14.36l4.62-227.8,117.28-7.19C1876,981.91,1974.86,1060.66,1974.86,1216.9Z"/><path class="cls-10" d="M1262.44,735.93a56.07,56.07,0,0,1-56.18,56.18V679.76A56.18,56.18,0,0,1,1262.44,735.93Z"/><path class="cls-13" d="M1351.12,743.52c-.22,0-2.55-.46-2.77-.5l-61.8-17.15c-2.46-.48-4.15-3.52-3.8-6.79s2.64-5.54,5.1-5.05l62,12.09c2.46.48,4.41,4.21,5,7.42C1355.76,738.93,1353.31,743.52,1351.12,743.52Z"/><path class="cls-10" d="M1201.77,1081.77q.84,5.19,1.62,10l-.48-.23a124.19,124.19,0,0,0-53.53-12.06c-64.74,0-118.12,49.54-124.25,112.71a13.34,13.34,0,0,1-13.25,12.13h-.71a21,21,0,0,1-20.74-24,161.16,161.16,0,0,1,123.49-132.77l.65-.16,101.54-214.25a93.09,93.09,0,0,1,35.78-29.83c-17.31,29.13-65.06,122.26-54,247.78q1.15,12.93,3.15,26.32C1201.31,1078.87,1201.53,1080.32,1201.77,1081.77Z"/><path class="cls-10" d="M1780.29,941.17V975a10.71,10.71,0,0,1-10.68,10.67H1547A10.72,10.72,0,0,1,1536.36,975V941.17A10.72,10.72,0,0,1,1547,930.49h222.57A10.7,10.7,0,0,1,1780.29,941.17Z"/><path class="cls-16" d="M1947.27,1231.26H1612.21s-20.45-124.06,55-166c18.16-10.09,41-13.56,65.84-11.13C1811.35,1061.85,1910,1128.23,1947.27,1231.26Z"/><path class="cls-17" d="M1261.5,746.26a56.21,56.21,0,0,1-55.24,45.85V760.76C1222.76,761.42,1246.55,759.62,1261.5,746.26Z"/><path class="cls-17" d="M1709.83,985.68H1547A10.72,10.72,0,0,1,1536.36,975V941.17A10.72,10.72,0,0,1,1547,930.49h111.53C1668.26,944.17,1686.48,967.37,1709.83,985.68Z"/><path class="cls-18" d="M1947.27,1231.26H1808.11c-84-42.63-78.86-145.46-75.1-177.08C1811.35,1061.85,1910,1128.23,1947.27,1231.26Z"/><path class="cls-14" d="M1197.52,1231.65a55.34,55.34,0,1,1-69.4-78.37C1132.93,1177.23,1148.42,1221.61,1197.52,1231.65Z"/><path class="cls-17" d="M1201.77,1081.77q.84,5.19,1.62,10l-.48-.23c-20.05-18.54-62.41-35-89-44l.65-.16,101.54-214.25a93.09,93.09,0,0,1,35.78-29.83c-17.31,29.13-65.06,122.26-54,247.78q1.15,12.93,3.15,26.32C1201.31,1078.87,1201.53,1080.32,1201.77,1081.77Z"/><rect class="cls-19" x="1742.15" y="726.2" width="173.46" height="143.03" transform="translate(3657.77 1595.43) rotate(180)"/><rect class="cls-20" x="1828.89" y="726.2" width="173.46" height="143.03"/><polygon class="cls-20" points="1742.26 832.96 1769.74 832.96 1767.32 825.22 1769.74 819.7 1742.26 819.7 1742.26 832.96"/><polygon class="cls-21" points="2002.34 821.03 2002.34 869.23 1828.88 869.23 1828.88 726.2 1859.61 726.2 2002.34 821.03"/><polygon class="cls-22" points="2002.34 758.28 1974.86 758.28 1977.28 750.55 1974.86 745.02 2002.34 745.02 2002.34 758.28"/><polygon class="cls-20" points="2002.34 846.22 1974.86 846.22 1977.28 838.48 1974.86 832.96 2002.34 832.96 2002.34 846.22"/><path class="cls-23" d="M1566.39,596.59c30,12.17,84.81-13.86,84.81-13.86s-18.2-16.11-21.66-46.62c-.18-1.54-.31-3.1-.41-4.71l-15.5-5.51L1587.07,544a205.81,205.81,0,0,0,.3,24.46c.16,2.72.37,5.64.65,8.75C1574.24,583.37,1566.39,596.59,1566.39,596.59Z"/><path class="cls-24" d="M1587.07,544a205.81,205.81,0,0,0,.3,24.46c24.17-4.39,37.47-23.91,42.17-32.32-.18-1.54-.31-3.1-.41-4.71l-15.5-5.51Z"/><path class="cls-23" d="M1582.17,556.93s51.64-1.68,50.1-33.83,4.09-54-29-54.3-38.85,12.29-41,23.15S1568.69,556.54,1582.17,556.93Z"/><path class="cls-13" d="M1629.54,536.11s2-10.69-3.81-17.74c0,0,3.76-10.49-.27-12.84s-6.14,6.61-7.9,4.92-9.59-9.61-12-20.07-38.22-3-42.45-1.7,23.76-51,54-38.6,32.5,27.89,29,40.46S1642.94,533.53,1629.54,536.11Z"/><path class="cls-25" d="M1678.94,842.94S1675.36,906,1661,924s-289.67,11-289.67,11-1.2-40.46,9.58-50.86,61-40.28,221.56-57.21Z"/><path class="cls-10" d="M1682.61,710.89c-4.49,54.19,1.43,136.61-3.67,150.89-4.4,12.32-54.47,5-74.44.89-7.4-1.53-16.37-3.7-25.62-6.27-25.81-7.17-53.94-17.42-57-25a5.26,5.26,0,0,1-.28-.88,6.12,6.12,0,0,1,0-3.18c.74-2.87,3.06-5.91,4.41-11.19a33.46,33.46,0,0,0,.93-6.49c.47-9.82.44-21.22.78-33.5,0-1.13.07-2.27.1-3.4,0-1.54,0-3.2.23-4.72v-.56c0-.29,0-.58,0-.86.43-15.15,1.31-31.05,2.33-46.84.33-4.92.67-9.82,1.06-14.65.11-1.72.26-3.41.39-5.1.26-3.16.53-6.3.81-9.39,2.25-24.27,5.29-45.87,9.3-59.51,6.57-22.25,21-36.76,34.2-47.39l9.53-7.34c10.63,2.08,23.2.7,34.57-4.13,12.29-5.25,16.54-9,18.68-7.59C1667.48,584.33,1687.91,644.64,1682.61,710.89Z"/><path class="cls-26" d="M1470.38,1142.55s-2.44,39.27-10,39.84c-1,.07-38.54.07-38.54.07l-47.9-.28s.31-11.54,14.32-14,37.43-12.28,45.92-30.78C1443.07,1118,1470.38,1142.55,1470.38,1142.55Z"/><path class="cls-25" d="M1480.39,1145.11s-9.26,7.12-28.13,8a75.87,75.87,0,0,1-13.21-.52,62.93,62.93,0,0,1-16.9-4.32L1371.32,935s55.06-48.11,83.79-18.19c3.75,3.9,6.94,10.66,9.67,19.48C1483,995.09,1480.39,1145.11,1480.39,1145.11Z"/><path class="cls-17" d="M1602.46,669.7s-35.65,130.51-76.35,146.42a33.46,33.46,0,0,0,.93-6.49c.47-9.82.44-21.22.78-33.5,0-1.13.07-2.27.1-3.4,0-1.54,0-3.2.23-4.72v-.56c0-.29,0-.58,0-.86.43-15.15,1.31-31.05,2.33-46.84.33-4.92.67-9.82,1.06-14.65C1549.49,683.44,1573.82,667.88,1602.46,669.7Z"/><path class="cls-23" d="M1388.64,720s-15.52,1.19-19.51,0-22.75-12.37-29.53-10-23.94,20-19.55,27.93c0,0,8,.2,15.36-7.38s15.36-2.4,14.57-1.4-12.37,5.59-10.38,7.58,17.16,1.6,20.75-.79,30.32.59,30.32.59Z"/><path class="cls-10" d="M1602.46,600.87s-96.53,82.29-121.94,90.23-115.18,25.38-115.18,25.38-2.48,21.25,5.94,29.23c0,0,115.35-6.69,129.72-9.73s121.39-58.5,130.12-62.69S1638.49,594.09,1602.46,600.87Z"/><path class="cls-27" d="M1480.39,1145.11s-9.26,7.12-28.13,8a75.87,75.87,0,0,1-13.21-.52c29-36.67,25.73-216.34,25.73-216.34C1483,995.09,1480.39,1145.11,1480.39,1145.11Z"/><path class="cls-10" d="M1653.73,492.67v.49a3.4,3.4,0,0,1-1.5,3,1.94,1.94,0,0,1-1,.26H1528.9c-1.35,0-2.46-1.47-2.46-3.26v-.49c0-1.8,1.11-3.27,2.46-3.27l27.33-3.51c2.55-20.3,16-36.87,33.86-42.58h0a44.57,44.57,0,0,1,13.7-2.14c25.11,0,45.69,20.75,47.83,47.19,0,.31,0,.61.07.92.31.23.49.37.52.38A3.43,3.43,0,0,1,1653.73,492.67Z"/><path class="cls-17" d="M1612.38,488.36c9.12-48.27-21.25-45.17-22.27-45.05a44.57,44.57,0,0,1,13.7-2.14c25.11,0,45.69,20.75,47.83,47.19Z"/><path class="cls-1" d="M1769.55,1312.93s100.46-25.31,128.8-55.92,52.84,4.08,34.47,23.46S1769.55,1312.93,1769.55,1312.93Z"/><path class="cls-1" d="M2168.48,1244.88h-140.8a6.33,6.33,0,0,1-6.31-6.31h0a6.33,6.33,0,0,1,6.31-6.31h140.8a6.33,6.33,0,0,1,6.31,6.31h0A6.33,6.33,0,0,1,2168.48,1244.88Z"/><path class="cls-1" d="M2101.38,1216.73H2024.8a3.45,3.45,0,0,1-3.43-3.43h0a3.44,3.44,0,0,1,3.43-3.43h76.58a3.44,3.44,0,0,1,3.43,3.43h0A3.45,3.45,0,0,1,2101.38,1216.73Z"/><path class="cls-17" d="M648.54,980.1c-44.81,80.76-113.72,165.36-113.72,165.36s-151.7-186.21-151.7-270A151.56,151.56,0,0,1,439.2,757.69c5.75,27.44,15.1,58.84,30.08,89.15a70.8,70.8,0,0,0,65.54,97.9A65.62,65.62,0,0,0,550.28,943C576.77,961,609.12,974.34,648.54,980.1Z"/></g></g></svg>